<?xml version="1.0" encoding="UTF-8" standalone="no"?>
<!DOCTYPE svg PUBLIC "-//W3C//DTD SVG 1.1//EN" "http://www.w3.org/Graphics/SVG/1.1/DTD/svg11.dtd">
<svg width="100%" height="100%" viewBox="0 0 449 294" version="1.1" xmlns="http://www.w3.org/2000/svg" xmlns:xlink="http://www.w3.org/1999/xlink" xml:space="preserve" xmlns:serif="http://www.serif.com/" style="fill-rule:evenodd;clip-rule:evenodd;stroke-linejoin:round;stroke-miterlimit:1.41421;">
    <g>
        <path d="M298.583,-0.019C281.338,-0.019 265.329,3.54 252.089,9.626C242.045,14.243 230.832,15.559 220.027,13.224C144.544,-3.087 60.852,33.972 60.852,91.451C60.852,99.226 62.459,106.749 65.463,113.877C40.912,123.97 24.019,145.061 24.019,169.449C24.019,203.642 57.225,231.363 98.188,231.363C137.634,231.363 169.882,205.658 172.217,173.22C175.733,173.427 179.288,173.536 182.883,173.536C231.04,173.536 272.676,154.771 292.524,127.519C299.637,117.752 310.269,111.051 322.118,108.683C356.218,101.869 381.089,80.629 381.089,55.479C381.089,24.828 344.15,-0.019 298.583,-0.019Z" style="fill:rgb(223,241,243);fill-rule:nonzero;"/>
        <path d="M-0.007,225.264L92.478,225.264L92.478,223.769L-0.007,223.769" style="fill:rgb(182,160,205);fill-rule:nonzero;"/>
        <path d="M444.736,206.883L374.336,206.883L374.336,208.579L444.736,208.579" style="fill:rgb(246,159,168);fill-rule:nonzero;"/>
        <path d="M395.204,56.681C395.204,46.49 390.81,35.958 383.808,32.248C378.686,29.534 374.289,25.579 371.66,20.413C366.887,11.042 360.811,5.425 354.191,5.425C342.285,5.425 332.133,23.579 328.179,49.087C327.15,55.718 324.06,61.936 319.113,66.471C312.164,72.84 307.655,83.08 307.655,94.631C307.655,111.655 317.778,126.696 331.564,129.246C336.449,130.151 340.855,132.629 344.549,135.95C347.552,138.651 350.801,140.129 354.191,140.129C366.497,140.129 376.93,120.733 380.582,93.867C381.407,87.796 384.022,82.126 388.149,77.596C392.423,72.907 395.204,65.286 395.204,56.681Z" style="fill:rgb(253,226,225);fill-rule:nonzero;"/>
        <path d="M351.327,46.693L351.327,183.888L353.022,183.888L353.022,46.693" style="fill:rgb(248,178,186);fill-rule:nonzero;"/>
        <path d="M327.148,98.964L352.135,130.953L366.555,114.595L365.283,113.473L352.214,128.299L328.484,97.92L327.148,98.964Z" style="fill:rgb(248,178,186);fill-rule:nonzero;"/>
        <path d="M373.705,59.073L352.068,83.274L344.446,77.396L343.411,78.74L352.281,85.581L374.968,60.203L373.705,59.073Z" style="fill:rgb(248,178,186);fill-rule:nonzero;"/>
        <path d="M442.184,109.369C440.889,108.693 439.454,108.369 437.915,108.369C432.814,108.368 428.468,104.584 428.187,99.492C427.076,79.416 419.584,62.474 409.592,62.474C402.285,62.474 395.953,71.874 392.863,85.586C391.776,90.411 387.091,93.553 382.21,92.76C379.071,92.249 376.306,92.682 374.142,94.198C362.568,102.3 374.624,134.486 394.827,153.257C397.149,155.414 398.319,158.563 397.793,161.687C395.959,172.567 397.693,181.163 403.211,184.043C412.388,188.833 428.551,175.999 439.314,155.379C450.076,134.758 451.361,114.159 442.184,109.369Z" style="fill:rgb(248,178,186);fill-rule:nonzero;"/>
        <path d="M408.765,107.7L408.765,207.091L410.46,207.091L410.46,107.7" style="fill:rgb(246,159,168);fill-rule:nonzero;"/>
        <path d="M430.993,134.39L408.89,170.288L410.335,171.177L432.437,135.279" style="fill:rgb(246,159,168);fill-rule:nonzero;"/>
        <path d="M384.729,110.427L408.904,147.173L410.321,146.24L386.147,109.495" style="fill:rgb(246,159,168);fill-rule:nonzero;"/>
        <path d="M64.68,100.866C64.68,91.192 68.85,81.195 75.496,77.673C80.358,75.097 84.533,71.343 87.029,66.439C91.558,57.545 97.327,52.211 103.611,52.211C114.913,52.211 124.549,69.444 128.304,93.658C129.279,99.953 132.212,105.855 136.908,110.159C143.505,116.206 147.785,125.925 147.785,136.892C147.785,153.051 138.176,167.327 125.089,169.75C120.453,170.608 116.271,172.96 112.764,176.114C109.912,178.676 106.83,180.079 103.611,180.079C91.929,180.079 82.025,161.668 78.559,136.165C77.777,130.402 75.293,125.02 71.376,120.721C67.319,116.269 64.68,109.036 64.68,100.866Z" style="fill:rgb(237,224,238);fill-rule:nonzero;"/>
        <path d="M104.721,91.385L104.721,221.618L106.33,221.618L106.33,91.385" style="fill:rgb(197,179,215);fill-rule:nonzero;"/>
        <path d="M128.011,140.013L105.488,168.85L93.081,154.776L91.874,155.841L105.563,171.369L129.281,141.003L128.011,140.013Z" style="fill:rgb(197,179,215);fill-rule:nonzero;"/>
        <path d="M83.887,104.21L105.424,128.3L113.845,121.805L112.861,120.53L105.626,126.11L85.087,103.137L83.887,104.21Z" style="fill:rgb(197,179,215);fill-rule:nonzero;"/>
        <path d="M67.597,138.388C66.453,137.792 65.188,137.506 63.831,137.506C59.331,137.505 55.497,134.166 55.249,129.674C54.268,111.964 47.66,97.019 38.846,97.019C32.398,97.019 26.814,105.312 24.087,117.408C23.128,121.664 18.996,124.436 14.69,123.735C11.921,123.285 9.482,123.667 7.572,125.004C-2.636,132.151 7.998,160.546 25.821,177.104C27.869,179.006 28.901,181.785 28.436,184.54C26.82,194.138 28.348,201.72 33.217,204.262C41.311,208.487 55.57,197.165 65.065,178.975C74.559,160.784 75.692,142.614 67.597,138.388Z" style="fill:rgb(197,179,215);fill-rule:nonzero;"/>
        <path d="M38.115,136.915L38.115,224.593L39.611,224.593L39.611,136.915" style="fill:rgb(182,160,205);fill-rule:nonzero;"/>
        <path d="M57.724,160.459L38.226,192.126L39.5,192.911L58.998,161.245" style="fill:rgb(182,160,205);fill-rule:nonzero;"/>
        <path d="M16.913,139.321L38.238,171.736L39.488,170.914L18.163,138.499" style="fill:rgb(182,160,205);fill-rule:nonzero;"/>
        <path d="M380.927,115.917L256.298,115.917C253.863,115.917 251.889,117.89 251.889,120.324L251.889,266.787C251.889,269.221 253.863,271.194 256.298,271.194L380.927,271.194C383.361,271.194 385.335,269.221 385.335,266.787L385.335,120.324C385.335,117.89 383.361,115.917 380.927,115.917Z" style="fill:rgb(228,223,239);fill-rule:nonzero;"/>
        <rect x="264.747" y="135.677" width="107.38" height="121.924" style="fill:white;fill-rule:nonzero;"/>
        <path d="M271.478,128.542L266.128,128.542C265.496,128.542 264.982,128.029 264.982,127.396L264.982,124.033C264.982,123.4 265.496,122.887 266.128,122.887L271.478,122.887C272.111,122.887 272.624,123.4 272.624,124.033L272.624,127.396C272.624,128.029 272.111,128.542 271.478,128.542Z" style="fill:rgb(182,181,219);fill-rule:nonzero;"/>
        <path d="M282.56,128.542L277.21,128.542C276.576,128.542 276.063,128.029 276.063,127.396L276.063,124.033C276.063,123.4 276.576,122.887 277.21,122.887L282.56,122.887C283.192,122.887 283.706,123.4 283.706,124.033L283.706,127.396C283.706,128.029 283.192,128.542 282.56,128.542Z" style="fill:rgb(182,181,219);fill-rule:nonzero;"/>
        <path d="M293.641,128.542L288.291,128.542C287.658,128.542 287.144,128.029 287.144,127.396L287.144,124.033C287.144,123.4 287.658,122.887 288.291,122.887L293.641,122.887C294.274,122.887 294.786,123.4 294.786,124.033L294.786,127.396C294.786,128.029 294.274,128.542 293.641,128.542Z" style="fill:rgb(182,181,219);fill-rule:nonzero;"/>
        <rect x="302.582" y="124.019" width="69.545" height="2.827" style="fill:rgb(182,181,219);fill-rule:nonzero;"/>
        <path d="M359.255,200.788L277.619,200.788L277.619,241.345L359.255,241.345L359.255,200.788ZM358.35,201.694L358.35,240.439L278.526,240.439L278.526,201.694L358.35,201.694Z" style="fill:rgb(182,181,219);fill-rule:nonzero;"/>
        <rect x="298.166" y="144.172" width="59.982" height="6.552" style="fill:rgb(182,181,219);fill-rule:nonzero;"/>
        <rect x="298.166" y="155.927" width="59.982" height="6.552" style="fill:rgb(182,181,219);fill-rule:nonzero;"/>
        <rect x="298.166" y="167.682" width="59.982" height="6.553" style="fill:rgb(182,181,219);fill-rule:nonzero;"/>
        <rect x="298.166" y="179.437" width="59.982" height="6.553" style="fill:rgb(182,181,219);fill-rule:nonzero;"/>
        <path d="M285.872,150.724L282.003,150.724C280.193,150.724 278.727,149.257 278.727,147.448C278.727,145.638 280.193,144.172 282.003,144.172L285.872,144.172C287.683,144.172 289.148,145.638 289.148,147.448C289.148,149.257 287.683,150.724 285.872,150.724Z" style="fill:rgb(182,181,219);fill-rule:nonzero;"/>
        <path d="M285.872,162.479L282.003,162.479C280.193,162.479 278.727,161.012 278.727,159.203C278.727,157.394 280.193,155.927 282.003,155.927L285.872,155.927C287.683,155.927 289.148,157.394 289.148,159.203C289.148,161.012 287.683,162.479 285.872,162.479Z" style="fill:rgb(182,181,219);fill-rule:nonzero;"/>
        <path d="M285.872,174.235L282.003,174.235C280.193,174.235 278.727,172.767 278.727,170.958C278.727,169.15 280.193,167.682 282.003,167.682L285.872,167.682C287.683,167.682 289.148,169.15 289.148,170.958C289.148,172.767 287.683,174.235 285.872,174.235Z" style="fill:rgb(182,181,219);fill-rule:nonzero;"/>
        <path d="M285.872,185.99L282.003,185.99C280.193,185.99 278.727,184.522 278.727,182.713C278.727,180.905 280.193,179.437 282.003,179.437L285.872,179.437C287.683,179.437 289.148,180.905 289.148,182.713C289.148,184.522 287.683,185.99 285.872,185.99Z" style="fill:rgb(182,181,219);fill-rule:nonzero;"/>
        <path d="M185.688,248.598L185.688,166.716C185.688,164.282 183.715,162.307 181.281,162.307L56.651,162.307C54.216,162.307 52.243,164.282 52.243,166.716L52.243,248.598C52.243,252.142 55.116,255.014 58.66,255.014L179.272,255.014C182.815,255.014 185.688,252.142 185.688,248.598Z" style="fill:rgb(253,226,225);fill-rule:nonzero;"/>
        <rect x="65.1" y="182.068" width="107.381" height="63.619" style="fill:white;fill-rule:nonzero;"/>
        <path d="M71.832,174.932L66.482,174.932C65.848,174.932 65.335,174.419 65.335,173.787L65.335,170.425C65.335,169.791 65.848,169.278 66.482,169.278L71.832,169.278C72.465,169.278 72.978,169.791 72.978,170.425L72.978,173.787C72.978,174.419 72.465,174.932 71.832,174.932Z" style="fill:rgb(248,178,186);fill-rule:nonzero;"/>
        <path d="M82.913,174.932L77.563,174.932C76.93,174.932 76.418,174.419 76.418,173.787L76.418,170.425C76.418,169.791 76.93,169.278 77.563,169.278L82.913,169.278C83.546,169.278 84.06,169.791 84.06,170.425L84.06,173.787C84.06,174.419 83.546,174.932 82.913,174.932Z" style="fill:rgb(248,178,186);fill-rule:nonzero;"/>
        <path d="M93.994,174.932L88.645,174.932C88.012,174.932 87.499,174.419 87.499,173.787L87.499,170.425C87.499,169.791 88.012,169.278 88.645,169.278L93.994,169.278C94.628,169.278 95.141,169.791 95.141,170.425L95.141,173.787C95.141,174.419 94.628,174.932 93.994,174.932Z" style="fill:rgb(248,178,186);fill-rule:nonzero;"/>
        <rect x="102.936" y="170.409" width="69.545" height="2.828" style="fill:rgb(248,178,186);fill-rule:nonzero;"/>
        <rect x="98.519" y="190.563" width="59.983" height="6.551" style="fill:rgb(248,178,186);fill-rule:nonzero;"/>
        <rect x="98.519" y="202.317" width="59.983" height="6.552" style="fill:rgb(248,178,186);fill-rule:nonzero;"/>
        <rect x="98.519" y="214.072" width="59.983" height="6.552" style="fill:rgb(248,178,186);fill-rule:nonzero;"/>
        <rect x="98.519" y="225.828" width="59.983" height="6.551" style="fill:rgb(248,178,186);fill-rule:nonzero;"/>
        <path d="M86.227,197.114L82.356,197.114C80.547,197.114 79.08,195.649 79.08,193.838C79.08,192.029 80.547,190.563 82.356,190.563L86.227,190.563C88.036,190.563 89.503,192.029 89.503,193.838C89.503,195.649 88.036,197.114 86.227,197.114Z" style="fill:rgb(248,178,186);fill-rule:nonzero;"/>
        <path d="M86.227,208.869L82.356,208.869C80.547,208.869 79.08,207.404 79.08,205.594C79.08,203.784 80.547,202.317 82.356,202.317L86.227,202.317C88.036,202.317 89.503,203.784 89.503,205.594C89.503,207.404 88.036,208.869 86.227,208.869Z" style="fill:rgb(248,178,186);fill-rule:nonzero;"/>
        <path d="M86.227,220.624L82.356,220.624C80.547,220.624 79.08,219.158 79.08,217.349C79.08,215.539 80.547,214.072 82.356,214.072L86.227,214.072C88.036,214.072 89.503,215.539 89.503,217.349C89.503,219.158 88.036,220.624 86.227,220.624Z" style="fill:rgb(248,178,186);fill-rule:nonzero;"/>
        <path d="M86.227,232.379L82.356,232.379C80.547,232.379 79.08,230.913 79.08,229.104C79.08,227.294 80.547,225.828 82.356,225.828L86.227,225.828C88.036,225.828 89.503,227.294 89.503,229.104C89.503,230.913 88.036,232.379 86.227,232.379Z" style="fill:rgb(248,178,186);fill-rule:nonzero;"/>
        <path d="M290.76,271.194L171.323,271.194C165.552,271.194 160.875,266.516 160.875,260.746L160.875,57.211C160.875,51.441 165.552,46.764 171.323,46.764L290.76,46.764C296.53,46.764 301.207,51.441 301.207,57.211L301.207,260.746C301.207,266.516 296.53,271.194 290.76,271.194Z" style="fill:rgb(121,120,185);fill-rule:nonzero;"/>
        <path d="M283.035,271.194L159.673,271.194C153.791,271.194 149.022,266.425 149.022,260.543L149.022,57.415C149.022,51.533 153.791,46.764 159.673,46.764L283.035,46.764C288.919,46.764 293.688,51.533 293.688,57.415L293.688,260.543C293.688,266.425 288.919,271.194 283.035,271.194Z" style="fill:rgb(137,135,193);fill-rule:nonzero;"/>
        <path d="M275.436,260.295L166.938,260.295C162.877,260.295 159.586,257.003 159.586,252.944L159.586,65.51C159.586,61.45 162.877,58.159 166.938,58.159L275.436,58.159C279.497,58.159 282.788,61.45 282.788,65.51L282.788,252.944C282.788,257.003 279.497,260.295 275.436,260.295Z" style="fill:rgb(163,160,207);fill-rule:nonzero;"/>
        <path d="M241.285,66.085L199.826,66.085C196.206,66.085 193.272,63.151 193.272,59.532L193.272,55.187L247.84,55.187L247.84,59.532C247.84,63.151 244.906,66.085 241.285,66.085Z" style="fill:rgb(137,135,193);fill-rule:nonzero;"/>
        <path d="M120.072,270.744C113.126,270.744 107.495,265.114 107.495,258.169C107.495,251.222 113.126,245.592 120.072,245.592C127.017,245.592 132.648,251.222 132.648,258.169C132.648,265.114 127.017,270.744 120.072,270.744ZM145.707,263.709L145.707,252.627L140.909,252.627C140.412,250.757 139.67,248.989 138.72,247.356L142.116,243.959L134.281,236.123L130.884,239.52C129.25,238.57 127.482,237.828 125.612,237.331L125.612,232.532L114.531,232.532L114.531,237.331C112.661,237.828 110.893,238.57 109.259,239.52L105.862,236.123L98.026,243.959L101.423,247.356C100.473,248.989 99.731,250.757 99.234,252.627L94.436,252.627L94.436,263.709L99.234,263.709C99.731,265.579 100.473,267.347 101.423,268.981L98.026,272.377L105.862,280.213L109.259,276.816C110.893,277.767 112.661,278.509 114.531,279.005L114.531,283.804L125.612,283.804L125.612,279.005C127.482,278.509 129.25,277.767 130.884,276.816L134.281,280.213L142.116,272.377L138.72,268.981C139.67,267.347 140.412,265.579 140.909,263.709L145.707,263.709Z" style="fill:rgb(137,135,193);fill-rule:nonzero;"/>
        <path d="M85.101,274.071C79.924,274.071 75.727,269.874 75.727,264.698C75.727,259.521 79.924,255.324 85.101,255.324C90.277,255.324 94.474,259.521 94.474,264.698C94.474,269.874 90.277,274.071 85.101,274.071ZM104.207,268.827L104.207,260.568L100.63,260.568C100.261,259.175 99.707,257.857 98.999,256.638L101.531,254.108L95.691,248.267L93.159,250.799C91.942,250.092 90.624,249.538 89.23,249.167L89.23,245.592L80.971,245.592L80.971,249.167C79.578,249.538 78.26,250.092 77.042,250.799L74.511,248.267L68.671,254.108L71.202,256.638C70.494,257.857 69.94,259.175 69.571,260.568L65.995,260.568L65.995,268.827L69.571,268.827C69.94,270.221 70.494,271.539 71.202,272.757L68.671,275.288L74.511,281.127L77.042,278.597C78.26,279.304 79.578,279.857 80.971,280.227L80.971,283.804L89.23,283.804L89.23,280.227C90.624,279.857 91.942,279.304 93.159,278.597L95.691,281.127L101.531,275.288L98.999,272.757C99.707,271.539 100.261,270.221 100.63,268.827L104.207,268.827Z" style="fill:rgb(153,212,188);fill-rule:nonzero;"/>
        <path d="M404.974,294.019L151.546,294.019C150.602,294.019 149.836,293.254 149.836,292.31C149.836,291.365 150.602,290.6 151.546,290.6L404.974,290.6C405.919,290.6 406.684,291.365 406.684,292.31C406.684,293.254 405.919,294.019 404.974,294.019Z" style="fill:rgb(200,230,235);fill-rule:nonzero;"/>
        <path d="M273.194,215.42L169.516,215.42C167.057,215.42 165.063,217.413 165.063,219.871L165.063,242.854C165.063,245.313 167.057,247.307 169.516,247.307L273.194,247.307C275.653,247.307 277.646,245.313 277.646,242.854L277.646,219.871C277.646,217.413 275.653,215.42 273.194,215.42ZM273.194,216.267C275.181,216.267 276.797,217.884 276.797,219.871L276.797,242.854C276.797,244.841 275.181,246.459 273.194,246.459L169.516,246.459C167.529,246.459 165.911,244.841 165.911,242.854L165.911,219.871C165.911,217.884 167.529,216.267 169.516,216.267L273.194,216.267Z" style="fill:white;fill-rule:nonzero;"/>
        <rect x="237.847" y="237.887" width="70.243" height="45.046" style="fill:rgb(200,230,235);fill-rule:nonzero;"/>
        <path d="M272.969,260.411L237.847,282.933L308.09,282.933L272.969,260.411Z" style="fill:rgb(181,215,220);fill-rule:nonzero;"/>
        <path d="M308.09,237.887L237.847,237.887L272.969,269.781L308.09,237.887Z" style="fill:rgb(164,200,205);fill-rule:nonzero;"/>
        <path d="M262.631,210.718C261.453,209.433 263.157,207.493 264.618,208.609C280.05,220.406 293.695,224.097 303.708,207.127C304.455,205.817 306.073,202.832 306.467,201.379C307.202,198.671 309.994,197.07 312.702,197.804C315.645,198.602 317.234,201.799 316.075,204.637C310.066,219.35 289.343,239.804 262.631,210.718Z" style="fill:rgb(246,149,141);fill-rule:nonzero;"/>
        <path d="M149.022,141.118L147.564,141.118C147.71,139.728 147.785,138.317 147.785,136.892C147.785,125.925 143.505,116.206 136.908,110.159C136.579,109.857 136.259,109.549 135.947,109.232L149.022,109.232L149.022,141.118Z" style="fill:rgb(187,217,214);"/>
        <path d="M147.564,141.118L129.192,141.118L129.281,141.003L128.011,140.013L127.149,141.118L118.779,141.118C116.321,141.118 114.328,139.124 114.328,136.666L114.328,113.683C114.328,111.225 116.321,109.232 118.779,109.232L135.947,109.232C136.259,109.549 136.579,109.857 136.908,110.159C143.505,116.206 147.785,125.925 147.785,136.892C147.785,138.317 147.71,139.728 147.564,141.118Z" style="fill:rgb(203,191,216);fill-rule:nonzero;"/>
        <path d="M129.192,141.118L127.149,141.118L128.011,140.013L129.281,141.003L129.192,141.118Z" style="fill:rgb(175,152,201);fill-rule:nonzero;"/>
        <rect x="149.022" y="109.232" width="10.564" height="31.886" style="fill:rgb(115,115,181);fill-rule:nonzero;"/>
        <path d="M222.458,141.118L159.586,141.118L159.586,109.232L222.458,109.232C224.916,109.232 226.91,111.225 226.91,113.683L226.91,136.666C226.91,139.124 224.916,141.118 222.458,141.118Z" style="fill:rgb(140,138,195);fill-rule:nonzero;"/>
        <path d="M222.458,139.422L118.779,139.422C116.321,139.422 114.328,137.428 114.328,134.97L114.328,111.988C114.328,109.529 116.321,107.535 118.779,107.535L222.458,107.535C224.916,107.535 226.91,109.529 226.91,111.988L226.91,134.97C226.91,137.428 224.916,139.422 222.458,139.422Z" style="fill:white;fill-rule:nonzero;"/>
        <path d="M273.194,78.046L169.516,78.046C167.057,78.046 165.063,80.04 165.063,82.499L165.063,105.482C165.063,107.94 167.057,109.933 169.516,109.933L273.194,109.933C275.653,109.933 277.646,107.94 277.646,105.482L277.646,82.499C277.646,80.04 275.653,78.046 273.194,78.046ZM273.194,78.896C275.181,78.896 276.797,80.512 276.797,82.499L276.797,105.482C276.797,107.469 275.181,109.086 273.194,109.086L169.516,109.086C167.529,109.086 165.911,107.469 165.911,105.482L165.911,82.499C165.911,80.512 167.529,78.896 169.516,78.896L273.194,78.896Z" style="fill:white;fill-rule:nonzero;"/>
        <path d="M273.194,123.838L169.516,123.838C167.057,123.838 165.063,125.831 165.063,128.29L165.063,151.272C165.063,153.731 167.057,155.725 169.516,155.725L273.194,155.725C275.653,155.725 277.646,153.731 277.646,151.272L277.646,128.29C277.646,125.831 275.653,123.838 273.194,123.838ZM273.194,124.686C275.181,124.686 276.797,126.303 276.797,128.29L276.797,151.272C276.797,153.259 275.181,154.877 273.194,154.877L169.516,154.877C167.529,154.877 165.911,153.259 165.911,151.272L165.911,128.29C165.911,126.303 167.529,124.686 169.516,124.686L273.194,124.686Z" style="fill:white;fill-rule:nonzero;"/>
        <path d="M273.194,170.478L169.516,170.478C167.057,170.478 165.063,172.47 165.063,174.928L165.063,197.912C165.063,200.37 167.057,202.362 169.516,202.362L273.194,202.362C275.653,202.362 277.646,200.37 277.646,197.912L277.646,174.928C277.646,172.47 275.653,170.478 273.194,170.478ZM273.194,171.325C275.181,171.325 276.797,172.941 276.797,174.928L276.797,197.912C276.797,199.899 275.181,201.515 273.194,201.515L169.516,201.515C167.529,201.515 165.911,199.899 165.911,197.912L165.911,174.928C165.911,172.941 167.529,171.325 169.516,171.325L273.194,171.325Z" style="fill:white;fill-rule:nonzero;"/>
        <path d="M137.414,133.492L123.553,133.492C122.556,133.492 121.748,132.683 121.748,131.686L121.748,115.271C121.748,114.274 122.556,113.466 123.553,113.466L137.414,113.466C138.411,113.466 139.22,114.274 139.22,115.271L139.22,131.686C139.22,132.683 138.411,133.492 137.414,133.492Z" style="fill:rgb(115,200,240);fill-rule:nonzero;"/>
        <rect x="146.789" y="113.466" width="45.874" height="2.451" style="fill:rgb(115,200,240);fill-rule:nonzero;"/>
        <rect x="146.789" y="121.894" width="70.568" height="2.452" style="fill:rgb(115,200,240);fill-rule:nonzero;"/>
        <rect x="146.789" y="130.324" width="70.568" height="2.451" style="fill:rgb(115,200,240);fill-rule:nonzero;"/>
        <path d="M237.847,243.852L183.692,243.852C181.234,243.852 179.241,241.859 179.241,239.4L179.241,216.418C179.241,216.367 179.241,216.318 179.243,216.267L268.323,216.267C271.237,218.776 274.066,220.704 276.797,222.131L276.797,237.887L237.847,237.887L237.847,243.852Z" style="fill:rgb(140,138,195);fill-rule:nonzero;"/>
        <path d="M291.823,237.887L282.788,237.887L282.788,224.532C285.069,225.167 287.268,225.457 289.374,225.457C290.205,225.457 291.021,225.413 291.823,225.326L291.823,237.887Z" style="fill:rgb(115,115,181);fill-rule:nonzero;"/>
        <path d="M282.788,237.887L277.646,237.887L277.646,222.559C279.404,223.417 281.116,224.066 282.788,224.532L282.788,237.887ZM267.361,215.42L179.353,215.42C179.805,213.442 181.576,211.966 183.692,211.966L263.802,211.966C265.002,213.216 266.187,214.364 267.361,215.42Z" style="fill:rgb(140,138,195);fill-rule:nonzero;"/>
        <path d="M277.646,237.887L276.797,237.887L276.797,222.131C277.081,222.279 277.365,222.421 277.646,222.559L277.646,237.887ZM268.323,216.267L179.243,216.267C179.252,215.977 179.29,215.694 179.353,215.42L267.361,215.42C267.683,215.709 268.004,215.992 268.323,216.267Z" style="fill:rgb(217,217,216);fill-rule:nonzero;"/>
        <path d="M244.415,243.852L237.847,243.852L237.847,237.887L291.823,237.887L237.847,237.887L244.415,243.852Z" style="fill:rgb(169,196,200);fill-rule:nonzero;"/>
        <path d="M287.371,243.852L244.415,243.852L237.847,237.887L291.823,237.887L291.823,239.4C291.823,241.859 289.829,243.852 287.371,243.852Z" style="fill:rgb(140,170,174);fill-rule:nonzero;"/>
        <path d="M286.945,218.671C285.588,218.671 284.202,218.515 282.788,218.213L282.788,211.966L287.371,211.966C289.829,211.966 291.823,213.959 291.823,216.418L291.823,217.929C290.244,218.432 288.617,218.671 286.945,218.671Z" style="fill:rgb(115,115,181);fill-rule:nonzero;"/>
        <path d="M282.788,218.213C278.525,217.306 274.01,215.096 269.302,211.966L282.788,211.966L282.788,218.213Z" style="fill:rgb(140,138,195);fill-rule:nonzero;"/>
        <path d="M289.374,225.457C287.268,225.457 285.069,225.167 282.788,224.532C281.116,224.066 279.404,223.417 277.646,222.559C277.365,222.421 277.081,222.279 276.797,222.131C274.066,220.704 271.237,218.776 268.323,216.267C268.004,215.992 267.683,215.709 267.361,215.42C266.187,214.364 265.002,213.216 263.802,211.966L269.302,211.966C274.01,215.096 278.525,217.306 282.788,218.213C284.202,218.515 285.588,218.671 286.945,218.671C288.617,218.671 290.244,218.432 291.823,217.929L291.823,225.326C291.021,225.413 290.205,225.457 289.374,225.457Z" style="fill:rgb(213,128,119);fill-rule:nonzero;"/>
        <path d="M287.371,242.155L183.692,242.155C181.234,242.155 179.241,240.163 179.241,237.704L179.241,214.721C179.241,212.263 181.234,210.269 183.692,210.269L287.371,210.269C289.829,210.269 291.823,212.263 291.823,214.721L291.823,237.704C291.823,240.163 289.829,242.155 287.371,242.155Z" style="fill:white;fill-rule:nonzero;"/>
        <path d="M202.327,233.682L188.465,233.682C187.469,233.682 186.66,232.874 186.66,231.877L186.66,215.46C186.66,214.463 187.469,213.655 188.465,213.655L202.327,213.655C203.324,213.655 204.133,214.463 204.133,215.46L204.133,231.877C204.133,232.874 203.324,233.682 202.327,233.682Z" style="fill:rgb(153,212,188);fill-rule:nonzero;"/>
        <rect x="225.021" y="216.2" width="45.873" height="2.45" style="fill:rgb(153,212,188);fill-rule:nonzero;"/>
        <rect x="212.673" y="224.628" width="70.569" height="2.452" style="fill:rgb(153,212,188);fill-rule:nonzero;"/>
        <rect x="212.673" y="233.057" width="70.569" height="2.452" style="fill:rgb(153,212,188);fill-rule:nonzero;"/>
        <path d="M152.423,243.315C152.599,246.632 154.624,264.938 156.033,276.727C156.745,282.692 156.846,286.989 157.396,286.831C158.817,286.421 163.251,247.746 162.984,242.751C162.717,237.757 160.137,233.835 157.221,233.99C154.304,234.147 152.156,238.321 152.423,243.315Z" style="fill:rgb(246,149,141);fill-rule:nonzero;"/>
        <path d="M159.688,277.417C159.179,277.443 156.224,277.8 155.678,277.911C153.909,266.068 151.812,246.233 151.997,242.751C152.018,242.376 152.051,242.007 152.096,241.645C152.721,236.675 152.754,231.643 151.623,226.763C149.053,215.668 147.062,203.632 146.846,200.346C146.419,193.822 150.181,188.265 155.249,187.932C160.316,187.601 164.491,192.101 165.3,198.587C167.256,214.244 159.716,277.158 159.688,277.417Z" style="fill:rgb(0,116,171);fill-rule:nonzero;"/>
        <path d="M164.603,227.183L164.628,227.205C165.519,215.048 165.976,203.996 165.3,198.587C164.491,192.101 160.316,187.601 155.249,187.932C150.181,188.265 146.419,193.822 146.846,200.346C146.899,201.137 147.055,202.44 147.296,204.112C154.827,207.061 160.211,213.977 161.69,222.151C162.045,224.117 163.066,225.906 164.603,227.183Z" style="fill:rgb(25,95,160);fill-rule:nonzero;"/>
        <path d="M155.624,277.458C155.624,277.458 155.927,285.974 155.228,287.597C154.53,289.219 154.359,291.054 156.584,291.038C158.766,291.025 164.003,291.019 164.757,290.996C166.16,290.952 167.401,290.791 167.372,289.862C167.344,288.933 160.866,288.647 159.629,287.712C158.391,286.775 159.303,277.911 159.303,277.911L155.624,277.458Z" style="fill:rgb(246,149,141);fill-rule:nonzero;"/>
        <path d="M164.135,288.82C162.901,289.267 161.587,289.523 160.225,289.523C158.355,289.523 156.576,289.057 154.982,288.255C154.529,289.677 154.658,291.052 156.584,291.038C158.766,291.025 164.003,291.019 164.757,290.996C166.16,290.952 167.401,290.791 167.372,289.862C167.36,289.413 165.84,289.115 164.135,288.82Z" style="fill:rgb(160,61,34);fill-rule:nonzero;"/>
        <path d="M163.779,244.488C163.956,247.804 165.98,266.111 167.388,277.9C168.102,283.864 168.202,288.162 168.752,288.003C170.173,287.595 174.607,248.918 174.34,243.924C174.074,238.93 171.493,235.008 168.577,235.163C165.66,235.319 163.512,239.494 163.779,244.488Z" style="fill:rgb(246,149,141);fill-rule:nonzero;"/>
        <path d="M171.044,278.59C170.534,278.615 167.579,278.973 167.034,279.084C165.265,267.241 163.168,247.405 163.353,243.924C163.374,243.55 163.407,243.18 163.453,242.819C164.076,237.847 164.11,232.816 162.979,227.935C160.409,216.842 158.418,204.805 158.203,201.518C157.775,194.995 161.537,189.438 166.605,189.106C171.672,188.774 175.847,193.273 176.657,199.759C178.612,215.417 171.074,278.331 171.044,278.59Z" style="fill:rgb(0,145,200);fill-rule:nonzero;"/>
        <path d="M166.98,278.631C166.98,278.631 167.283,287.148 166.584,288.77C165.886,290.393 165.624,292.31 167.94,292.211C170.12,292.12 174.347,291.978 175.1,291.898C176.98,291.7 179.155,291.768 179.127,290.839C179.098,289.911 172.222,289.82 170.984,288.885C169.747,287.949 170.659,279.084 170.659,279.084L166.98,278.631Z" style="fill:rgb(246,149,141);fill-rule:nonzero;"/>
        <path d="M174.895,289.781C173.666,290.223 172.358,290.477 171.001,290.477C169.349,290.477 167.765,290.119 166.318,289.483C165.866,290.903 165.959,292.296 167.94,292.211C170.12,292.12 174.347,291.978 175.1,291.898C176.98,291.7 179.155,291.768 179.127,290.839C179.112,290.324 176.993,290.067 174.895,289.781Z" style="fill:rgb(204,82,39);fill-rule:nonzero;"/>
        <path d="M165.074,146.907C163.562,146.907 161.928,146.151 159.675,144.184C158.383,143.054 157.425,141.085 157.425,139.753L157.425,132.395L168.756,132.395C168.756,132.395 169.606,136.302 168.78,140.18C168.162,143.089 166.262,146.908 165.074,146.907Z" style="fill:rgb(249,185,175);fill-rule:nonzero;"/>
        <path d="M125.327,145.043C125.265,144.292 125.822,143.633 126.573,143.571C127.247,143.514 127.847,143.958 128.007,144.593L128.011,144.612C129.126,148.984 130.388,153.307 132.007,157.366C135.319,165.789 138.216,166.993 139.331,167.737C139.474,167.778 140.031,167.951 140.178,167.939C143.393,168.68 149.007,161.668 149.985,156.235C149.986,155.946 150.684,154.052 150.606,154.278C151.437,151.894 154.043,150.635 156.426,151.466C170.881,156.505 130.446,206.712 125.327,145.043Z" style="fill:rgb(249,185,175);fill-rule:nonzero;"/>
        <path d="M149.495,197.262C153.635,202.014 177.542,203.996 177.542,203.996C179.307,201.949 171.085,178.574 171.085,178.574C171.085,178.574 175.046,161.704 174.868,155.612C174.795,153.098 172.737,151.103 170.222,151.103L155.051,151.103C152.712,151.103 150.765,152.888 150.574,155.219C150.176,160.042 156.476,178.046 156.476,178.046C156.476,178.046 145.914,193.153 149.495,197.262Z" style="fill:rgb(249,185,175);fill-rule:nonzero;"/>
        <path d="M171.085,178.574C171.085,178.574 175.029,161.213 174.857,155.222C174.791,152.923 172.908,151.103 170.609,151.103L168.359,151.103C167.502,153.091 165.687,154.625 162.864,154.625C160.046,154.625 158.23,153.091 157.372,151.103L155.26,151.103C157.555,156.018 156.73,162.501 152.781,166.285C154.459,172.214 156.476,178.046 156.476,178.046C156.476,178.046 145.325,194.888 146.951,197.387C150.389,202.67 177.542,203.996 177.542,203.996C179.307,201.421 171.085,178.574 171.085,178.574Z" style="fill:rgb(246,139,74);fill-rule:nonzero;"/>
        <path d="M160.405,152.147L167.287,151.425L165.109,143.894L160.657,144.445L160.405,152.147Z" style="fill:rgb(249,185,175);fill-rule:nonzero;"/>
        <path d="M160.657,144.445L165.109,143.894L165.788,146.245C164.792,147.369 163.512,149.795 161.892,149.795C161.378,149.795 160.91,149.65 160.489,149.383L160.657,144.445Z" style="fill:rgb(246,149,141);fill-rule:nonzero;"/>
        <path d="M159.344,128.855L163.161,128.613C164.252,128.544 165.292,128.19 166.187,127.604C167.485,126.754 169.203,126.9 170.202,128.087C171.281,129.37 171.825,131.147 169.414,132.979C168.216,133.888 166.327,133.085 165.133,133.562L164.911,133.561L161.525,133.778C160.34,133.854 159.587,134.895 159.587,136.081C159.587,136.801 159.084,137.725 159.084,137.725L157.501,135.772L156.018,134.57C155.696,134.309 155.498,133.926 155.471,133.513L155.456,133.272C155.31,130.979 157.051,129.001 159.344,128.855Z" style="fill:rgb(161,69,154);fill-rule:nonzero;"/>
        <path d="M201.815,139.006C201.815,139.006 199.959,142.539 200.849,143.463C201.741,144.387 202.508,144.844 203.901,143.597C205.295,142.352 206.613,139.979 207.117,138.397C207.623,136.816 207.351,133.808 207.109,133.506C206.229,132.403 205.615,135.363 205.247,136.783C204.879,138.201 204.323,139.768 203.69,139.398C203.058,139.028 203.966,136.363 203.381,135.7C202.796,135.036 201.815,139.006 201.815,139.006Z" style="fill:rgb(249,185,175);fill-rule:nonzero;"/>
        <path d="M126.531,139.08C126.531,139.08 128.289,142.663 127.374,143.561C126.458,144.461 125.679,144.897 124.321,143.614C122.962,142.33 121.71,139.921 121.248,138.327C120.785,136.733 121.14,133.734 121.39,133.437C122.3,132.359 122.833,135.336 123.162,136.764C123.49,138.192 124.003,139.774 124.646,139.421C125.289,139.069 124.454,136.38 125.056,135.733C125.659,135.085 126.531,139.08 126.531,139.08Z" style="fill:rgb(249,185,175);fill-rule:nonzero;"/>
        <path d="M182.013,164.944C186.03,169.53 189.097,167.118 192.591,162.066C194.065,159.549 195.899,157.436 200.812,143.596L200.819,143.578C201.361,142.052 203.65,142.589 203.466,144.191C198.637,186.323 175.767,179.694 168.943,160.82C168.462,159.423 168.01,158.047 167.965,155.89C167.91,153.264 169.995,151.092 172.62,151.037C175.246,150.983 177.419,153.067 177.473,155.693C177.511,157.478 179.244,161.882 182.013,164.944Z" style="fill:rgb(249,185,175);fill-rule:nonzero;"/>
        <path d="M175.744,157.135C174.347,156.071 173.713,154.34 173.813,152.625C174.024,148.987 171.846,145.754 169.051,143.183C167.112,141.4 166.189,138.771 166.49,136.155L166.878,132.775L155.448,132.775C155.448,135.583 154.147,138.253 151.878,139.907C149.326,141.768 147.205,144.448 145.926,147.744C142.808,155.785 145.842,164.499 152.689,167.668C150.884,175.273 154.251,182.941 160.921,185.527C168.295,188.387 176.892,183.953 180.123,175.623C182.851,168.588 180.87,161.037 175.744,157.135Z" style="fill:rgb(161,69,154);fill-rule:nonzero;"/>
        <path d="M316.703,277.55C314.565,277.333 313.269,275.094 314.134,273.127C317.73,264.947 320.641,255.895 321.281,252.472C322.584,245.506 318.169,238.836 311.423,237.574C304.676,236.314 302.484,241.122 301.182,248.088C300.168,253.512 297.457,274.2 299.484,283.703C299.477,283.81 301.044,291.433 308.696,291.433C313.865,291.433 358.444,289.821 358.509,285.813C358.561,282.651 330.931,278.997 316.703,277.55Z" style="fill:rgb(65,81,81);fill-rule:nonzero;"/>
        <path d="M315.576,269.71C318.488,262.557 320.729,255.423 321.281,252.472C322.584,245.506 318.169,238.836 311.423,237.574C304.676,236.314 302.484,241.122 301.182,248.088C301.15,248.264 301.115,248.457 301.079,248.662C312.939,255.8 314.433,268.068 315.576,269.71Z" style="fill:rgb(60,70,70);fill-rule:nonzero;"/>
        <path d="M395.836,288.428C393.24,286.665 390.254,285.546 387.204,284.824C387.059,284.791 386.904,284.816 386.779,284.896C386.302,285.205 385.936,285.496 385.763,285.639C385.687,285.7 385.6,285.739 385.506,285.757C381.325,286.484 376.552,286.018 371.638,285.179C371.167,285.098 370.828,285.615 371.092,286.012L373.915,290.246C374.013,290.396 374.181,290.486 374.359,290.488C375.917,290.507 383.484,290.605 387.958,290.815C391.541,290.985 394.655,290.953 397.243,290.832C397.716,290.81 397.94,290.236 397.604,289.898C397.071,289.364 396.488,288.869 395.836,288.428Z" style="fill:rgb(249,185,175);fill-rule:nonzero;"/>
        <path d="M395.113,286.402L390.768,284.066C388.871,283.088 386.11,285.342 385.709,285.684C385.806,285.681 385.9,285.669 385.997,285.669C389.841,285.669 393.331,287.59 395.537,290.505C395.77,290.813 396.127,291.013 396.514,291.032C400.472,291.21 403.337,291.265 404.881,291.282C405.734,291.291 406.127,290.185 405.434,289.686C403.13,288.028 396.611,287.31 395.113,286.402Z" style="fill:rgb(65,81,81);fill-rule:nonzero;"/>
        <path d="M337.479,277.339C335.058,277.108 333.287,274.965 333.51,272.542C334.398,262.938 334.236,252.403 333.633,248.832C332.455,241.844 326.013,237.105 319.243,238.247C312.475,239.389 312.077,244.66 313.256,251.647C314.168,257.051 318.162,278.083 323.056,286.82L323.139,286.97C324.55,289.443 326.033,290.888 327.539,290.634L327.549,290.631C328.777,291.118 376.269,290.517 376.269,290.517C376.269,290.517 376.403,286.922 376.606,285.642C367.344,281.644 347.587,278.299 337.479,277.339Z" style="fill:rgb(85,106,111);fill-rule:nonzero;"/>
        <path d="M299.846,210.229C301.081,208.586 305.882,202.171 306.658,200.525L306.696,200.442C306.759,200.311 306.828,200.181 306.903,200.054C308.317,197.637 311.423,196.826 313.839,198.24C316.255,199.655 317.067,202.76 315.652,205.177C314.325,207.444 313.057,209.288 311.615,211.225C310.641,212.503 309.611,213.738 308.551,214.953C307.841,214.123 299.837,210.242 299.846,210.229Z" style="fill:rgb(94,200,214);fill-rule:nonzero;"/>
        <path d="M322.174,224.25C323.226,224.456 324.279,224.663 325.333,224.87C329.03,225.596 332.472,222.761 332.474,218.993C332.475,212.763 332.545,207.096 332.606,203.308C332.649,200.63 330.554,198.41 327.879,198.29L311.738,197.56C309.25,197.448 307.093,199.253 306.777,201.722C306.343,205.112 306.136,210.251 305.721,215.867C305.498,218.874 307.525,221.605 310.481,222.194C314.358,222.966 318.299,223.492 322.174,224.25Z" style="fill:rgb(249,185,175);fill-rule:nonzero;"/>
        <path d="M311.585,197.553L314.207,197.671C315.026,199.827 316.883,201.548 319.881,201.682C322.884,201.818 324.889,200.272 325.897,198.199L328.29,198.307C330.737,198.418 332.653,200.443 332.613,202.893C332.508,209.274 332.368,221.575 332.597,232.713C332.806,242.794 336.21,251.387 334.209,254.043C334.209,254.043 307.301,255.639 300.647,248.498C301.945,241.844 302.723,233.272 303.86,224.434C304.994,215.638 306.145,206.663 306.796,201.575C307.101,199.19 309.184,197.445 311.585,197.553Z" style="fill:rgb(42,187,204);fill-rule:nonzero;"/>
        <path d="M319.101,193.055L319.408,193.092C321.754,193.378 323.886,191.707 324.172,189.361L324.934,183.084L320.379,182.531L319.101,193.055Z" style="fill:rgb(0,85,140);fill-rule:nonzero;"/>
        <path d="M318.224,199.618L324.268,198.332L319.743,190.26L314.41,192.548L315.832,198.131C316.102,199.189 317.157,199.843 318.224,199.618Z" style="fill:rgb(249,185,175);fill-rule:nonzero;"/>
        <path d="M314.41,192.548L319.743,190.26L321.56,193.502C320.726,195.257 319.713,197.202 317.701,197.786C317.062,197.971 316.345,197.92 315.725,197.741L314.41,192.548Z" style="fill:rgb(246,149,141);fill-rule:nonzero;"/>
        <path d="M314.763,196.141C318.621,196.61 322.127,193.862 322.595,190.005L323.54,182.225L311.56,180.77C311.56,180.77 310.823,186.844 311.198,191.049C311.48,194.203 312.797,195.903 314.763,196.141Z" style="fill:rgb(249,185,175);fill-rule:nonzero;"/>
        <path d="M321.564,185.012L323.816,185.286L323.691,186.307L321.441,186.034L321.564,185.012Z" style="fill:rgb(0,85,140);fill-rule:nonzero;"/>
        <path d="M320.742,188.287C320.557,189.804 321.136,191.123 322.032,191.233C322.928,191.341 324.158,189.471 324.343,187.954C324.526,186.435 323.595,185.843 322.699,185.736C321.802,185.626 320.926,186.768 320.742,188.287Z" style="fill:rgb(249,185,175);fill-rule:nonzero;"/>
        <path d="M310.341,183.869C310.177,182.867 310.243,181.84 310.531,180.865C310.531,180.865 310.905,177.386 312.347,176.89C313.662,176.439 315.68,177.467 316.993,177.924C317.953,178.259 321.035,178.414 321.035,178.414C323.465,178.708 325.196,180.916 324.902,183.346L324.787,184.288L322.575,185.879L321.783,187.638L321.624,187.619C320.853,187.526 320.295,186.847 320.339,186.083C320.411,184.822 319.674,183.668 318.419,183.515L314.83,183.08C312.645,182.814 311.368,183.85 311.17,185.483L311.114,186.879L310.341,183.869Z" style="fill:rgb(0,85,140);fill-rule:nonzero;"/>
        <path d="M334.44,204.364C331.362,223.825 311.22,245.642 276.487,243.67C275.685,243.624 275.071,242.937 275.117,242.134C275.157,241.426 275.701,240.866 276.378,240.775C299.894,237.616 319.774,226.071 324.418,202.92C325.088,199.575 327.856,198.095 330.44,198.614C333.107,199.149 334.858,201.701 334.44,204.364Z" style="fill:rgb(249,185,175);fill-rule:nonzero;"/>
        <path d="M320.967,212.073C323.281,206.976 324.055,203.803 324.075,203.724C324.075,203.724 324.294,203 324.353,202.754C324.838,200.749 325.928,199.534 325.928,199.534C325.928,199.534 328.135,197.152 332.363,199.152C335.741,200.748 334.86,204.785 334.86,204.785C334.751,205.347 335.18,209.66 329.832,217.693C329.832,217.693 320.642,212.788 320.967,212.073Z" style="fill:rgb(94,200,214);fill-rule:nonzero;"/>
        <path d="M272.773,239.882C272.773,239.882 277.019,239.695 277.506,240.972C277.992,242.249 278.085,243.196 276.253,243.974C274.421,244.752 271.536,244.946 269.783,244.715C268.029,244.486 265.255,242.861 265.073,242.489C264.409,241.143 267.541,241.891 269.075,242.182C270.61,242.471 272.371,242.645 272.302,241.867C272.231,241.089 269.252,240.757 268.878,239.891C268.503,239.028 272.773,239.882 272.773,239.882Z" style="fill:rgb(249,185,175);fill-rule:nonzero;"/>
        <path d="M259.932,212.264C259.932,212.264 264.161,211.839 264.46,210.505C264.758,209.171 264.713,208.221 262.788,207.714C260.863,207.208 257.98,207.431 256.278,207.91C254.987,208.274 253.228,209.52 252.399,210.268L256.724,210.268C258.499,210.269 259.144,209.723 259.181,210.368C259.224,211.147 256.321,211.904 256.075,212.814C255.83,213.724 259.932,212.264 259.932,212.264Z" style="fill:rgb(246,149,141);fill-rule:nonzero;"/>
    </g>
</svg>
