<?xml version="1.0" encoding="UTF-8" standalone="no"?>
<!DOCTYPE svg PUBLIC "-//W3C//DTD SVG 1.1//EN" "http://www.w3.org/Graphics/SVG/1.1/DTD/svg11.dtd">
<svg width="100%" height="100%" viewBox="0 0 304 326" version="1.1" xmlns="http://www.w3.org/2000/svg" xmlns:xlink="http://www.w3.org/1999/xlink" xml:space="preserve" xmlns:serif="http://www.serif.com/" style="fill-rule:evenodd;clip-rule:evenodd;stroke-miterlimit:1.41421;">
    <g>
        <path d="M141.064,57.462C141.064,88.928 115.555,114.437 84.089,114.437C67.05,114.437 51.757,106.957 41.316,95.102C32.476,85.064 27.114,71.889 27.114,57.462C27.114,25.996 52.623,0.487 84.089,0.487C115.555,0.487 141.064,25.996 141.064,57.462Z" style="fill:rgb(121,212,237);fill-rule:nonzero;"/>
        <path d="M107.225,81.223C94.78,93.668 74.599,93.668 62.154,81.223C49.708,68.778 49.708,48.597 62.154,36.151C74.599,23.705 94.78,23.705 107.225,36.151C119.671,48.597 119.671,68.778 107.225,81.223Z" style="fill:rgb(121,212,237);fill-rule:nonzero;"/>
        <path d="M46.727,35.893C43.084,39.535 37.18,39.535 33.537,35.893C29.894,32.25 29.894,26.345 33.537,22.702C37.18,19.061 43.084,19.061 46.727,22.702C50.37,26.345 50.37,32.25 46.727,35.893Z" style="fill:rgb(121,212,237);fill-rule:nonzero;"/>
        <path d="M43.43,57.897C41.609,59.717 38.656,59.717 36.835,57.897C35.013,56.076 35.013,53.123 36.835,51.302C38.656,49.48 41.609,49.48 43.43,51.302C45.25,53.123 45.25,56.076 43.43,57.897Z" style="fill:rgb(121,212,237);fill-rule:nonzero;"/>
        <path d="M16.961,44.448C15.141,46.269 12.187,46.269 10.367,44.448C8.545,42.627 8.545,39.674 10.367,37.853C12.187,36.031 15.141,36.031 16.961,37.853C18.782,39.674 18.782,42.627 16.961,44.448Z" style="fill:rgb(121,212,237);fill-rule:nonzero;"/>
        <path d="M238.465,290.687C238.465,298.63 232.025,305.07 224.082,305.07C216.139,305.07 209.699,298.63 209.699,290.687C209.699,282.744 216.139,276.305 224.082,276.305C232.025,276.305 238.465,282.744 238.465,290.687Z" style="fill:rgb(121,212,237);fill-rule:nonzero;"/>
        <path d="M261.832,257.519C261.832,265.462 255.392,271.902 247.449,271.902C239.506,271.902 233.066,265.462 233.066,257.519C233.066,249.576 239.506,243.137 247.449,243.137C255.392,243.137 261.832,249.576 261.832,257.519Z" style="fill:rgb(121,212,237);fill-rule:nonzero;"/>
        <path d="M279.342,294.379C279.342,302.322 272.903,308.762 264.96,308.762C257.017,308.762 250.577,302.322 250.577,294.379C250.577,286.436 257.017,279.997 264.96,279.997C272.903,279.997 279.342,286.436 279.342,294.379Z" style="fill:rgb(121,212,237);fill-rule:nonzero;"/>
        <path d="M172.127,56.411C183.896,42.931 201.73,34.453 221.582,34.727C256.465,35.208 284.374,62.53 283.915,95.754C283.617,117.297 271.466,136.03 253.448,146.409" style="fill:none;stroke:rgb(253,196,0);stroke-width:0.81px;stroke-dasharray:4.06,4.06;"/>
        <path d="M253.251,150.31C251.231,150.283 249.616,148.701 249.642,146.778C249.668,144.853 251.328,143.317 253.348,143.345C255.368,143.373 256.983,144.954 256.957,146.877C256.928,148.802 255.271,150.338 253.251,150.31Z" style="fill:rgb(253,196,0);fill-rule:nonzero;"/>
        <path d="M172.072,60.397C170.052,60.369 168.437,58.787 168.463,56.863C168.491,54.939 170.149,53.404 172.169,53.431C174.189,53.459 175.804,55.04 175.778,56.964C175.75,58.887 174.092,60.424 172.072,60.397Z" style="fill:rgb(253,196,0);fill-rule:nonzero;"/>
        <path d="M237.427,180.701C237.427,116.961 185.679,65.212 121.939,65.212C58.199,65.212 6.451,116.961 6.451,180.701C6.451,244.441 58.199,296.189 121.939,296.189C185.679,296.189 237.427,244.441 237.427,180.701Z" style="fill:none;stroke:rgb(82,58,189);stroke-width:1.45px;stroke-dasharray:7.26,7.26;"/>
        <path d="M229.81,180.426C229.81,239.896 181.601,288.104 122.131,288.104C62.661,288.104 14.453,239.896 14.453,180.426C14.453,120.956 62.661,72.747 122.131,72.747C181.601,72.747 229.81,120.956 229.81,180.426Z" style="fill:rgb(121,212,237);fill-rule:nonzero;"/>
        <path d="M110.348,170.684C106.832,171.328 103.281,171.973 99.71,171.833C96.14,171.694 92.494,170.699 89.758,168.399C85.383,164.716 84.149,158.534 83.775,152.827C83.139,143.086 84.221,133.244 86.927,123.867C89.153,116.161 92.445,108.488 100.054,104.865C107.335,101.398 118.449,100.989 124.87,106.63C126.634,108.18 127.913,110.212 128.899,112.342C133.378,122.031 131.939,133.318 130.045,143.822C130.045,143.822 133.506,142.634 135.122,142.829C135.993,142.935 136.876,143.094 137.653,143.5C140.2,144.833 140.736,148.531 139.354,151.052C137.97,153.573 135.236,155.06 132.493,155.923L135.133,187.291C135,190.15 133.303,192.682 131.538,194.935C130.623,196.103 129.659,197.254 128.464,198.129C125.887,200.017 122.534,200.426 119.344,200.53C117.44,200.593 115.483,200.561 113.715,199.857C110.257,198.481 108.279,194.91 106.628,191.577L110.348,170.684Z" style="fill:rgb(255,209,184);fill-rule:nonzero;"/>
        <clipPath id="_clip1">
            <rect x="129.864" y="146.428" width="4.996" height="5.436"/>
        </clipPath>
        <g clip-path="url(#_clip1)">
            <path d="M134.126,146.45C132.553,146.905 130.649,147.76 129.917,149.337C129.713,149.777 130.125,150.197 130.567,149.988C131.075,149.749 131.549,149.443 132.018,149.126C131.838,149.889 131.628,150.655 131.737,151.414C131.791,151.781 132.34,151.993 132.632,151.777C133.711,150.984 133.723,149.449 133.31,148.249C133.717,147.978 134.131,147.719 134.572,147.507C135.169,147.221 134.747,146.27 134.126,146.45Z" style="fill:rgb(255,209,184);fill-rule:nonzero;"/>
        </g>
        <path d="M109.405,138.113C109.316,139.379 109.247,141.328 110.245,142.248C110.778,142.738 111.492,142.704 112.032,142.248C113.209,141.251 112.916,139.005 112.471,137.697C111.895,136.01 109.529,136.34 109.405,138.113Z" style="fill:rgb(25,61,90);fill-rule:nonzero;"/>
        <path d="M90.756,138.113C90.667,139.379 90.598,141.328 91.596,142.248C92.129,142.738 92.843,142.704 93.383,142.248C94.56,141.251 94.267,139.005 93.822,137.697C93.246,136.01 90.88,136.34 90.756,138.113Z" style="fill:rgb(25,61,90);fill-rule:nonzero;"/>
        <path d="M100.423,137.23C99.844,138.833 99.68,140.575 99.531,142.267C99.384,143.937 99.148,145.703 99.573,147.341C99.683,147.767 100.331,147.772 100.439,147.341C100.82,145.822 100.704,144.204 100.831,142.647C100.974,140.883 101.323,139.122 101.343,137.354C101.349,136.802 100.597,136.75 100.423,137.23Z" style="fill:rgb(25,61,90);fill-rule:nonzero;"/>
        <path d="M93.815,151.115C97.392,154.944 107.015,154.564 108.957,149.052C109.087,148.679 108.547,148.37 108.288,148.664C105.101,152.269 98.398,153.965 94.548,150.382C94.059,149.928 93.36,150.626 93.815,151.115Z" style="fill:rgb(25,61,90);fill-rule:nonzero;"/>
        <path d="M123.658,150.542C123.658,153.826 120.996,156.488 117.713,156.488C114.429,156.488 111.767,153.826 111.767,150.542C111.767,147.258 114.429,144.596 117.713,144.596C120.996,144.596 123.658,147.258 123.658,150.542Z" style="fill:rgb(255,209,184);fill-rule:nonzero;"/>
        <path d="M92.46,149.027C92.46,151.475 90.476,153.458 88.028,153.458C85.582,153.458 83.598,151.475 83.598,149.027C83.598,146.58 85.582,144.597 88.028,144.597C90.476,144.597 92.46,146.58 92.46,149.027Z" style="fill:rgb(255,209,184);fill-rule:nonzero;"/>
        <path d="M110.348,170.684C110.348,170.684 114.824,171.227 123.658,163.575C123.658,163.575 119.638,175.358 109.312,176.502L110.348,170.684Z" style="fill:rgb(227,227,227);fill-rule:nonzero;"/>
        <path d="M129.843,95.904C131.101,95.441 132.357,94.977 133.614,94.514C133.691,94.485 133.776,94.456 133.856,94.483C133.963,94.519 134.012,94.641 134.043,94.75C134.371,95.879 134.232,97.138 133.663,98.167L133.499,98.549C136.481,100.978 138.146,104.688 139.085,108.417C140.411,113.678 140.486,119.251 139.301,124.545C139.301,124.545 138.794,132.697 137.271,136.141C135.81,139.443 133.073,141.979 130.408,144.416L129.631,144.94C126.986,142.153 125.417,138.444 124.863,134.642C124.308,130.838 124.724,126.938 125.677,123.215L125.564,122.579C124.358,122.831 123.053,122.933 121.938,122.411C120.824,121.886 120.013,120.559 120.431,119.401L120.241,119.036C114.057,122.34 106.697,123.384 99.839,121.928C96.018,121.119 92.056,119.277 90.378,115.752L89.894,115.24C88.437,111.039 89.401,106.175 92.046,102.601C94.691,99.026 98.875,96.728 103.262,96.004C106.359,95.492 109.544,95.717 112.638,95.184C115.732,94.65 118.926,93.132 120.25,90.284L121.073,89.826C121.918,90.027 122.506,90.839 122.702,91.685C122.899,92.531 122.776,93.414 122.653,94.272L123.6,94.492C125.257,93.464 126.914,92.436 128.57,91.408C128.884,91.213 129.334,91.034 129.578,91.308C129.7,91.446 129.712,91.645 129.712,91.829C129.703,93.09 129.343,94.35 128.681,95.424L129.843,95.904Z" style="fill:rgb(82,58,189);fill-rule:nonzero;"/>
        <clipPath id="_clip2">
            <rect x="95.111" y="103.543" width="5.782" height="11.918"/>
        </clipPath>
        <g clip-path="url(#_clip2)">
            <path d="M96.567,114.627C95.987,110.535 97.937,107.275 100.728,104.487C101.185,104.031 100.607,103.318 100.052,103.612C96.036,105.738 94.567,110.735 95.286,114.979C95.43,115.83 96.685,115.457 96.567,114.627Z" style="fill:rgb(227,227,227);fill-rule:nonzero;"/>
        </g>
        <clipPath id="_clip3">
            <rect x="100.341" y="105.181" width="6.221" height="11.615"/>
        </clipPath>
        <g clip-path="url(#_clip3)">
            <path d="M101.726,116.212C101.363,112.209 103.223,108.811 106.32,106.39C106.985,105.868 106.138,104.895 105.45,105.262C101.462,107.383 99.7,112.054 100.55,116.371C100.679,117.024 101.787,116.886 101.726,116.212Z" style="fill:rgb(227,227,227);fill-rule:nonzero;"/>
        </g>
        <clipPath id="_clip4">
            <rect x="106.188" y="108.343" width="5.522" height="8.672"/>
        </clipPath>
        <g clip-path="url(#_clip4)">
            <path d="M107.484,116.539C108.175,113.771 109.678,111.672 111.54,109.571C112.031,109.017 111.366,107.974 110.694,108.476C108.239,110.312 106.786,113.221 106.203,116.187C106.039,117.016 107.274,117.377 107.484,116.539Z" style="fill:rgb(227,227,227);fill-rule:nonzero;"/>
        </g>
        <clipPath id="_clip5">
            <rect x="112.628" y="109.851" width="5.707" height="8.03"/>
        </clipPath>
        <g clip-path="url(#_clip5)">
            <path d="M113.512,117.796C116.088,116.112 118.053,113.447 118.333,110.316C118.385,109.734 117.555,109.706 117.377,110.186C116.393,112.836 115.064,115.116 112.811,116.889C112.297,117.294 112.966,118.154 113.512,117.796Z" style="fill:rgb(227,227,227);fill-rule:nonzero;"/>
        </g>
        <clipPath id="_clip6">
            <rect x="128.177" y="129.188" width="3.06" height="13.191"/>
        </clipPath>
        <g clip-path="url(#_clip6)">
            <path d="M130.779,141.406C129.55,137.42 130.293,134.079 131.213,130.162C131.415,129.302 130.263,128.8 129.787,129.561C127.556,133.137 127.91,138.007 129.243,141.829C129.576,142.787 131.084,142.396 130.779,141.406Z" style="fill:rgb(227,227,227);fill-rule:nonzero;"/>
        </g>
        <clipPath id="_clip7">
            <rect x="130.96" y="130.511" width="4.728" height="10.849"/>
        </clipPath>
        <g clip-path="url(#_clip7)">
            <path d="M132,141.272C133.384,140.458 133.974,139.148 134.46,137.669C135.143,135.585 135.739,133.301 135.684,131.094C135.666,130.389 134.73,130.306 134.5,130.933C133.913,132.536 133.602,134.239 133.156,135.886C132.745,137.402 132.471,139.178 131.18,140.208C130.57,140.696 131.352,141.653 132,141.272Z" style="fill:rgb(227,227,227);fill-rule:nonzero;"/>
        </g>
        <clipPath id="_clip8">
            <rect x="130.514" y="130.387" width="1.554" height="8.654"/>
        </clipPath>
        <g clip-path="url(#_clip8)">
            <path d="M131.576,138.535C131.507,135.92 131.8,133.376 132.065,130.782C132.113,130.317 131.379,130.238 131.262,130.673C130.585,133.22 130.465,135.911 130.528,138.535C130.545,139.208 131.595,139.211 131.576,138.535Z" style="fill:rgb(227,227,227);fill-rule:nonzero;"/>
        </g>
        <clipPath id="_clip9">
            <rect x="125.453" y="114.447" width="5.009" height="8.315"/>
        </clipPath>
        <g clip-path="url(#_clip9)">
            <path d="M126.725,122.579C128.892,120.792 130.654,118.028 130.444,115.122C130.391,114.371 129.31,114.158 129.091,114.94C128.386,117.445 127.62,119.694 125.686,121.54C124.99,122.205 126.009,123.169 126.725,122.579Z" style="fill:rgb(227,227,227);fill-rule:nonzero;"/>
        </g>
        <clipPath id="_clip10">
            <rect x="124.879" y="113.492" width="1.681" height="8.293"/>
        </clipPath>
        <g clip-path="url(#_clip10)">
            <path d="M126.449,121.172C126.482,118.871 126.703,116.482 126.409,114.195C126.289,113.273 125.034,113.241 124.948,114.195C124.74,116.493 125.054,118.873 125.178,121.172C125.221,121.984 126.436,121.996 126.449,121.172Z" style="fill:rgb(227,227,227);fill-rule:nonzero;"/>
        </g>
        <clipPath id="_clip11">
            <rect x="110.698" y="96.086" width="21.667" height="11.605"/>
        </clipPath>
        <g clip-path="url(#_clip11)">
            <path d="M111.306,99.036C115.905,97.574 120.267,96.463 124.618,99.384C127.657,101.426 129.781,104.236 131.456,107.453C131.713,107.946 132.496,107.605 132.346,107.077C131.217,103.099 127.842,99.467 124.268,97.453C119.865,94.975 115.438,96.284 111.038,98.065C110.456,98.302 110.673,99.237 111.306,99.036Z" style="fill:rgb(227,227,227);fill-rule:nonzero;"/>
        </g>
        <clipPath id="_clip12">
            <rect x="135.347" y="111.642" width="2.351" height="9.487"/>
        </clipPath>
        <g clip-path="url(#_clip12)">
            <path d="M135.487,112.546C137.269,114.309 136.106,118.519 135.671,120.618C135.584,121.04 136.183,121.351 136.402,120.926C137.66,118.491 138.666,113.705 136.112,111.736C135.642,111.374 135.081,112.143 135.487,112.546Z" style="fill:rgb(227,227,227);fill-rule:nonzero;"/>
        </g>
        <path d="M1.312,136.893C1.383,138.336 1.49,139.777 1.61,141.216C7.4,141.173 13.18,140.414 18.656,138.701C18.002,130.812 18.513,122.887 20.996,115.042C21.24,114.271 21.505,113.463 21.347,112.671C21.191,111.879 20.431,111.143 19.644,111.327C19.313,111.405 19.038,111.627 18.783,111.851C17.326,113.131 14.679,116.024 14.679,116.024C14.858,112.769 15.038,109.514 15.217,106.259C15.269,105.324 15.104,103.923 13.796,104.124C13.154,104.224 12.652,104.737 12.325,105.297C10.888,107.764 10.508,110.961 10.201,113.762C10.417,111.775 9.591,104.532 7.343,103.908C5.933,103.517 5.449,105.177 5.346,106.216C5.049,109.186 5.652,112.228 5.024,115.146C5.099,113.255 5.249,105.082 1.576,106.009C0.427,106.299 0.076,107.747 0.028,108.932C-0.085,111.837 1.351,124.701 1.262,126.776C1.119,130.147 1.148,133.523 1.312,136.893Z" style="fill:rgb(255,209,184);fill-rule:nonzero;"/>
        <clipPath id="_clip13">
            <rect x="3.309" y="122.321" width="5.039" height="3.085"/>
        </clipPath>
        <g clip-path="url(#_clip13)">
            <path d="M3.747,125.406C5.52,125.394 7.252,124.621 8.263,123.133C8.605,122.63 7.826,122.028 7.419,122.482C6.43,123.585 5.259,124.371 3.747,124.497C3.172,124.544 3.154,125.41 3.747,125.406Z" style="fill:rgb(252,182,123);fill-rule:nonzero;"/>
        </g>
        <clipPath id="_clip14">
            <rect x="7.683" y="122.22" width="6.397" height="3.388"/>
        </clipPath>
        <g clip-path="url(#_clip14)">
            <path d="M7.856,123.2C9.436,124.508 11.43,125.514 13.509,125.607C14.164,125.638 14.306,124.613 13.666,124.462C11.776,124.019 10.123,123.477 8.539,122.314C8.028,121.937 7.362,122.79 7.856,123.2Z" style="fill:rgb(252,182,123);fill-rule:nonzero;"/>
        </g>
        <clipPath id="_clip15">
            <rect x="11.133" y="115.737" width="3.702" height="2.8"/>
        </clipPath>
        <g clip-path="url(#_clip15)">
            <path d="M14.176,115.786C13.183,116.305 12.141,116.947 11.295,117.685C10.848,118.075 11.418,118.737 11.908,118.478C12.892,117.957 13.862,117.199 14.697,116.462C15.079,116.128 14.593,115.567 14.176,115.786Z" style="fill:rgb(252,182,123);fill-rule:nonzero;"/>
        </g>
        <clipPath id="_clip16">
            <rect x="11.649" y="114.408" width="3.149" height="1.849"/>
        </clipPath>
        <g clip-path="url(#_clip16)">
            <path d="M14.665,115.411C14.032,114.69 13.161,114.336 12.205,114.421C11.373,114.495 11.517,115.678 12.358,115.562C12.963,115.476 13.529,115.698 13.964,116.112C14.43,116.553 15.083,115.888 14.665,115.411Z" style="fill:rgb(252,182,123);fill-rule:nonzero;"/>
        </g>
        <path d="M84.137,224.208C69.166,222.058 25.826,203.12 13.429,197.215C8.24,194.74 4.64,189.849 3.806,184.161C1.609,169.155 0.496,153.987 0.485,138.82L1.128,138.115C6.737,136.618 12.672,135.03 18.283,133.531L18.41,133.572C22.004,145.871 25.597,158.17 29.191,170.468C29.777,172.47 30.368,174.488 31.358,176.322L32.433,176.565C46.713,178.476 60.991,180.385 75.27,182.296C87.388,183.918 99.773,185.62 110.665,191.174L84.137,224.208Z" style="fill:rgb(253,196,0);fill-rule:nonzero;"/>
        <clipPath id="_clip17">
            <rect x="31.118" y="175.396" width="2.806" height="14.128"/>
        </clipPath>
        <g clip-path="url(#_clip17)">
            <path d="M31.146,176.011C31.924,178.256 32.381,180.583 32.46,182.96C32.529,184.992 31.958,187.013 32.053,189.01C32.073,189.435 32.691,189.763 32.934,189.294C34.954,185.398 33.512,179.43 31.898,175.634C31.682,175.124 30.974,175.516 31.146,176.011Z" style="fill:rgb(227,227,227);fill-rule:nonzero;"/>
        </g>
        <clipPath id="_clip18">
            <rect x="26.942" y="176.428" width="4.915" height="7.541"/>
        </clipPath>
        <g clip-path="url(#_clip18)">
            <path d="M31.146,176.677C30.285,179.37 28.757,181.184 27.033,183.344C26.711,183.745 27.318,184.147 27.674,183.886C29.864,182.281 31.177,179.46 31.844,176.899C31.962,176.447 31.29,176.225 31.146,176.677Z" style="fill:rgb(227,227,227);fill-rule:nonzero;"/>
        </g>
        <clipPath id="_clip19">
            <rect x="25.359" y="175.362" width="5.323" height="5.747"/>
        </clipPath>
        <g clip-path="url(#_clip19)">
            <path d="M29.934,175.545C28.622,177.39 27.025,178.795 25.474,180.411C25.178,180.722 25.5,181.275 25.917,181.061C27.969,180.003 29.546,177.982 30.625,175.986C30.875,175.525 30.243,175.111 29.934,175.545Z" style="fill:rgb(227,227,227);fill-rule:nonzero;"/>
        </g>
        <path d="M138.507,221.139C145.338,240.87 165.596,260.677 172.427,280.408C177.787,295.892 183.173,311.437 190.661,326.013L193.94,325.465C197.891,323.613 201.906,321.904 205.978,320.339L205.918,319.575C198.769,289.519 191.589,259.361 180.589,230.492C176.532,219.845 171.765,209.099 163.598,201.154C155.431,193.21 143.099,188.602 132.362,192.416L138.507,221.139Z" style="fill:rgb(253,196,0);fill-rule:nonzero;"/>
        <path d="M180.589,230.492C176.532,219.844 171.765,209.099 163.598,201.155C155.429,193.21 143.099,188.602 132.362,192.416L132.5,192.618C141.589,191.886 151.037,196.144 157.707,202.632C165.875,210.577 170.641,221.321 174.699,231.969C185.698,260.839 192.878,290.996 200.028,321.052L200.089,321.817C196.874,323.052 193.704,324.404 190.564,325.818C190.596,325.883 190.627,325.947 190.661,326.013L193.94,325.465C197.89,323.613 201.906,321.904 205.978,320.339L205.919,319.575C198.769,289.519 191.589,259.362 180.589,230.492Z" style="fill:rgb(227,227,227);fill-rule:nonzero;"/>
        <path d="M152.065,198.394C151.784,194.627 148.799,193.493 145.995,191.579C144.134,190.309 142.185,189.141 140.09,188.295C139.353,187.998 134.3,187.195 134.131,186.888L134.315,187.224C130.435,190.387 125.627,192.462 120.634,192.839C115.643,193.214 110.492,191.843 106.506,188.813L106.34,188.632C99.879,189.752 93.292,190.914 87.51,194.01C85.775,194.939 84.088,196.077 82.966,197.694C79.32,202.955 80.51,212.65 80.344,218.743C79.772,239.855 81.478,261.065 85.248,281.856C86.447,282.383 87.584,282.933 88.699,283.48C99.493,286.405 110.359,287.902 121.58,288.037C125.358,288.083 129.292,288.181 133.198,287.995C134.684,287.781 136.185,287.678 137.673,287.474C140.491,286.9 143.288,286.265 146.021,285.548C147.855,267.499 149.237,248.683 150.482,230.817C151.234,219.998 152.876,209.265 152.065,198.394Z" style="fill:rgb(253,196,0);fill-rule:nonzero;"/>
        <clipPath id="_clip20">
            <rect x="100.611" y="191.286" width="51.674" height="96.818"/>
        </clipPath>
        <g clip-path="url(#_clip20)">
            <path d="M152.065,198.394C151.784,194.627 148.801,193.493 145.995,191.579C145.843,191.475 145.68,191.388 145.529,191.285C146.3,202.079 144.681,212.74 143.933,223.485C142.517,243.849 140.919,265.452 138.675,285.742C137.322,286.591 116.811,286.408 100.61,286.124C107.507,287.313 114.47,287.952 121.58,288.037C125.358,288.083 129.292,288.181 133.198,287.995C134.684,287.781 136.185,287.678 137.673,287.474C140.491,286.9 143.288,286.265 146.021,285.548C147.855,267.499 149.237,248.683 150.482,230.817C151.234,219.998 152.876,209.265 152.065,198.394Z" style="fill:rgb(227,227,227);fill-rule:nonzero;"/>
        </g>
        <clipPath id="_clip21">
            <rect x="151.952" y="210.553" width="3.925" height="12.483"/>
        </clipPath>
        <g clip-path="url(#_clip21)">
            <path d="M152.9,222.691C153.52,218.702 154.938,215.053 155.862,211.16C155.988,210.632 155.264,210.307 154.978,210.786C152.921,214.225 152.264,218.627 151.954,222.564C151.911,223.097 152.815,223.229 152.9,222.691Z" style="fill:rgb(227,227,227);fill-rule:nonzero;"/>
        </g>
        <path d="M152.395,221.172C151.981,216.073 151.207,210.843 149.649,205.96C149.42,205.248 148.394,205.542 148.535,206.268C149.509,211.287 150.639,216.247 151.454,221.299C151.54,221.828 152.438,221.709 152.395,221.172Z" style="fill:rgb(227,227,227);fill-rule:nonzero;"/>
        <clipPath id="_clip22">
            <rect x="144.685" y="211.753" width="6.578" height="10.141"/>
        </clipPath>
        <g clip-path="url(#_clip22)">
            <path d="M151.196,221.307C149.225,218.251 147.613,214.85 145.469,211.924C145.221,211.586 144.525,211.776 144.719,212.242C146.117,215.598 148.468,218.712 150.502,221.713C150.79,222.136 151.478,221.745 151.196,221.307Z" style="fill:rgb(227,227,227);fill-rule:nonzero;"/>
        </g>
        <clipPath id="_clip23">
            <rect x="79.908" y="200.098" width="7.955" height="24.394"/>
        </clipPath>
        <g clip-path="url(#_clip23)">
            <path d="M80.89,224.027C81.441,215.301 83.981,208.549 87.82,200.786C88.027,200.366 87.456,199.832 87.124,200.25C81.962,206.734 79.674,215.843 79.927,224.027C79.946,224.651 80.851,224.643 80.89,224.027Z" style="fill:rgb(227,227,227);fill-rule:nonzero;"/>
        </g>
        <path d="M81.178,223.323C80.907,215.004 81.799,207.646 84.071,199.648C84.22,199.121 83.399,198.739 83.161,199.265C79.834,206.597 78.821,215.539 80.476,223.418C80.559,223.813 81.19,223.724 81.178,223.323Z" style="fill:rgb(227,227,227);fill-rule:nonzero;"/>
        <clipPath id="_clip24">
            <rect x="77.321" y="206.408" width="3.508" height="15.59"/>
        </clipPath>
        <g clip-path="url(#_clip24)">
            <path d="M80.826,221.582C80.187,216.616 79.545,211.553 78.182,206.725C78.023,206.163 77.243,206.411 77.327,206.961C78.086,211.892 79.218,216.762 79.987,221.695C80.061,222.164 80.887,222.058 80.826,221.582Z" style="fill:rgb(227,227,227);fill-rule:nonzero;"/>
        </g>
        <path d="M112.86,218.015C104.47,218.015 97.667,224.818 97.667,233.209C97.667,239.94 102.05,245.639 108.113,247.633L108.113,256.946L110.012,256.946L110.012,259.795L115.709,259.795L115.709,256.946L117.608,256.946L117.608,247.633C123.671,245.639 128.054,239.94 128.054,233.209C128.054,224.818 121.251,218.015 112.86,218.015Z" style="fill:white;fill-rule:nonzero;"/>
        <path d="M112.86,215.167C113.386,215.167 113.811,214.742 113.811,214.217L113.811,210.419C113.811,209.893 113.386,209.469 112.86,209.469C112.335,209.469 111.91,209.893 111.91,210.419L111.91,214.217C111.91,214.742 112.335,215.167 112.86,215.167Z" style="fill:white;fill-rule:nonzero;"/>
        <path d="M135.65,232.259L131.852,232.259C131.326,232.259 130.901,232.683 130.901,233.209C130.901,233.733 131.326,234.157 131.852,234.157L135.65,234.157C136.175,234.157 136.6,233.733 136.6,233.209C136.6,232.683 136.175,232.259 135.65,232.259Z" style="fill:white;fill-rule:nonzero;"/>
        <path d="M93.869,232.259L90.072,232.259C89.546,232.259 89.122,232.683 89.122,233.209C89.122,233.733 89.546,234.157 90.072,234.157L93.869,234.157C94.395,234.157 94.82,233.733 94.82,233.209C94.82,232.683 94.395,232.259 93.869,232.259Z" style="fill:white;fill-rule:nonzero;"/>
        <path d="M128.304,216.422L125.619,219.107C125.248,219.478 125.248,220.078 125.619,220.449C125.804,220.635 126.047,220.728 126.29,220.728C126.532,220.728 126.776,220.635 126.961,220.449L129.646,217.764C130.017,217.393 130.017,216.793 129.646,216.422C129.276,216.051 128.675,216.051 128.304,216.422Z" style="fill:white;fill-rule:nonzero;"/>
        <path d="M98.76,245.966L96.075,248.651C95.702,249.022 95.702,249.623 96.075,249.994C96.26,250.179 96.502,250.273 96.746,250.273C96.988,250.273 97.232,250.179 97.417,249.994L100.102,247.309C100.473,246.938 100.473,246.337 100.102,245.966C99.731,245.595 99.131,245.595 98.76,245.966Z" style="fill:white;fill-rule:nonzero;"/>
        <path d="M126.961,245.966C126.59,245.595 125.99,245.595 125.619,245.966C125.248,246.337 125.248,246.938 125.619,247.309L128.304,249.994C128.489,250.179 128.733,250.273 128.975,250.273C129.218,250.273 129.461,250.179 129.646,249.994C130.019,249.623 130.019,249.022 129.646,248.651L126.961,245.966Z" style="fill:white;fill-rule:nonzero;"/>
        <path d="M98.76,220.45C98.945,220.635 99.187,220.727 99.431,220.727C99.675,220.727 99.917,220.635 100.102,220.45C100.473,220.079 100.473,219.478 100.102,219.107L97.417,216.422C97.046,216.05 96.446,216.05 96.075,216.422C95.702,216.793 95.702,217.393 96.075,217.765L98.76,220.45Z" style="fill:white;fill-rule:nonzero;"/>
        <path d="M212.086,56.197C181.043,56.197 155.877,75.062 155.877,98.334C155.877,105.768 158.455,112.749 162.964,118.813L161.168,130.151L159.129,143.019C158.715,145.632 161.287,147.713 163.756,146.766L175.92,142.097L189.447,136.903C196.376,139.191 204.029,140.471 212.086,140.471C243.129,140.471 268.294,121.605 268.294,98.334C268.294,75.062 243.129,56.197 212.086,56.197Z" style="fill:rgb(251,113,254);fill-rule:nonzero;"/>
        <path d="M279.591,181.729L274.523,176.392L257.509,188.449C258.032,189.033 258.776,189.436 259.627,189.516L297.786,193.043C298.637,193.122 299.437,192.863 300.056,192.383L285.551,177.413L279.591,181.729Z" style="fill:rgb(225,134,178);fill-rule:nonzero;"/>
        <path d="M302.85,162.274C302.326,161.688 301.586,161.288 300.731,161.208L262.572,157.68C261.721,157.602 260.922,157.861 260.298,158.347L279.885,178.545L302.85,162.274Z" style="fill:rgb(225,134,178);fill-rule:nonzero;"/>
        <path d="M259.108,160.178L256.661,186.627L273.258,174.975L259.108,160.178Z" style="fill:rgb(225,134,178);fill-rule:nonzero;"/>
        <path d="M287.055,176.251L301.232,190.749L303.678,164.29L287.055,176.251Z" style="fill:rgb(225,134,178);fill-rule:nonzero;"/>
        <path d="M268.142,224.662L263.403,222.063L254.197,234.305C254.694,234.596 255.304,234.711 255.918,234.576L283.403,228.507C284.016,228.373 284.517,228.011 284.843,227.537L271.346,220.31L268.142,224.662Z" style="fill:rgb(225,134,178);fill-rule:nonzero;"/>
        <path d="M280.061,205.848C279.563,205.554 278.956,205.44 278.34,205.577L250.856,211.646C250.243,211.781 249.74,212.142 249.414,212.62L267.635,222.369L280.061,205.848Z" style="fill:rgb(225,134,178);fill-rule:nonzero;"/>
        <path d="M248.991,214.169L253.198,233.22L262.2,221.355L248.991,214.169Z" style="fill:rgb(225,134,178);fill-rule:nonzero;"/>
        <path d="M272.138,219.16L285.299,226.13L281.091,207.073L272.138,219.16Z" style="fill:rgb(225,134,178);fill-rule:nonzero;"/>
        <path d="M283.509,252.803L280.808,249.451L270.315,255.669C270.592,256.035 271.006,256.305 271.5,256.392L293.577,260.266C294.069,260.352 294.549,260.239 294.932,259.989L287.188,250.57L283.509,252.803Z" style="fill:rgb(225,134,178);fill-rule:nonzero;"/>
        <path d="M297.995,242.569C297.718,242.201 297.306,241.933 296.811,241.847L274.733,237.972C274.241,237.886 273.761,237.999 273.375,238.252L283.832,250.961L297.995,242.569Z" style="fill:rgb(225,134,178);fill-rule:nonzero;"/>
        <path d="M272.594,239.264L269.909,254.566L280.139,248.563L272.594,239.264Z" style="fill:rgb(225,134,178);fill-rule:nonzero;"/>
        <path d="M288.121,249.965L295.696,259.093L298.381,243.784L288.121,249.965Z" style="fill:rgb(225,134,178);fill-rule:nonzero;"/>
        <path d="M173.421,106.272L173.421,89.288L175.674,89.288L175.674,96.262L184.498,96.262L184.498,89.288L186.752,89.288L186.752,106.272L184.498,106.272L184.498,98.278L175.674,98.278L175.674,106.272L173.421,106.272Z" style="fill:white;fill-rule:nonzero;"/>
        <path d="M190.294,106.272L190.294,89.288L202.581,89.288L202.581,91.304L192.547,91.304L192.547,96.499L201.941,96.499L201.941,98.515L192.547,98.515L192.547,104.256L202.985,104.256L202.985,106.272L190.294,106.272Z" style="fill:white;fill-rule:nonzero;"/>
        <path d="M206.481,106.272L206.481,89.288L208.734,89.288L208.734,104.256L217.108,104.256L217.108,106.272L206.481,106.272Z" style="fill:white;fill-rule:nonzero;"/>
        <path d="M219.67,106.272L219.67,89.288L221.923,89.288L221.923,104.256L230.297,104.256L230.297,106.272L219.67,106.272Z" style="fill:white;fill-rule:nonzero;"/>
        <path d="M232.194,97.993C232.194,96.507 232.396,95.202 232.799,94.079C233.202,92.957 233.807,92.024 234.614,91.28C235.42,90.537 236.298,89.98 237.247,89.608C238.196,89.236 239.224,89.051 240.331,89.051C241.485,89.051 242.545,89.244 243.509,89.632C244.474,90.019 245.344,90.608 246.119,91.399C246.893,92.174 247.475,93.103 247.862,94.186C248.25,95.269 248.443,96.491 248.443,97.851C248.443,99.227 248.246,100.453 247.85,101.528C247.455,102.603 246.862,103.52 246.071,104.28C245.296,105.054 244.426,105.628 243.462,105.999C242.497,106.371 241.453,106.557 240.331,106.557C239.002,106.557 237.832,106.339 236.82,105.904C235.808,105.47 234.954,104.817 234.258,103.947C233.578,103.062 233.064,102.129 232.716,101.148C232.368,100.168 232.194,99.132 232.194,98.041L232.194,97.993ZM234.519,98.041C234.519,99.053 234.649,99.958 234.91,100.757C235.171,101.556 235.571,102.255 236.108,102.856C236.646,103.473 237.263,103.932 237.959,104.232C238.654,104.533 239.437,104.683 240.307,104.683C241.082,104.683 241.805,104.544 242.477,104.268C243.149,103.991 243.778,103.576 244.363,103.022C244.948,102.469 245.387,101.761 245.68,100.899C245.972,100.037 246.119,99.021 246.119,97.851C246.119,96.633 245.968,95.586 245.668,94.708C245.367,93.83 244.917,93.123 244.316,92.585C243.731,92.047 243.106,91.644 242.442,91.375C241.778,91.106 241.082,90.972 240.354,90.972C239.912,90.972 239.469,91.023 239.026,91.126C238.583,91.229 238.156,91.375 237.745,91.565C237.318,91.755 236.939,91.992 236.606,92.277C236.274,92.561 235.982,92.886 235.729,93.249C235.634,93.376 235.547,93.51 235.468,93.652C235.389,93.795 235.318,93.937 235.254,94.079C235.223,94.143 235.191,94.214 235.159,94.293C235.128,94.372 235.096,94.443 235.065,94.506C235.049,94.586 235.029,94.661 235.005,94.732C234.982,94.803 234.954,94.878 234.922,94.957C234.812,95.305 234.728,95.637 234.673,95.953C234.618,96.27 234.582,96.586 234.566,96.902C234.551,97.203 234.539,97.452 234.531,97.65C234.523,97.847 234.519,97.993 234.519,98.088L234.519,98.041Z" style="fill:white;fill-rule:nonzero;"/>
        <path d="M253.868,106.272L253.868,103.9L256.239,103.9L256.239,106.272L253.868,106.272ZM254.413,102.05L253.773,93.059L253.773,89.288L256.358,89.288L256.358,93.059L255.765,102.05L254.413,102.05Z" style="fill:white;fill-rule:nonzero;"/>
    </g>
</svg>
