<?xml version="1.0" encoding="UTF-8" standalone="no"?>
<!DOCTYPE svg PUBLIC "-//W3C//DTD SVG 1.1//EN" "http://www.w3.org/Graphics/SVG/1.1/DTD/svg11.dtd">
<svg width="100%" height="100%" viewBox="0 0 98 38" version="1.1" xmlns="http://www.w3.org/2000/svg" xmlns:xlink="http://www.w3.org/1999/xlink" xml:space="preserve" xmlns:serif="http://www.serif.com/" style="fill-rule:evenodd;clip-rule:evenodd;stroke-linejoin:round;stroke-miterlimit:1.41421;">
    <g transform="matrix(0.11721,0,0,0.11721,0.379866,0.396456)">
        <g>
            <g id="Layer-1" serif:id="Layer 1">
                <g>
                    <g>
                        <g transform="matrix(1,0,0,1,157.374,51.7795)">
                            <path d="M0,204.768C4.973,204.342 10.006,204.272 14.909,203.434C52.008,197.098 78.493,176.608 92.305,141.743C108.804,100.093 96.322,55.623 61.251,27.831C37.014,8.623 9.093,2.774 -21,8.974C-43.217,13.551 -61.648,25.089 -76.22,42.61C-86.338,54.777 -93.219,68.604 -96.509,84.025C-102.141,110.426 -97.861,135.256 -83.817,158.394C-83.083,159.605 -82.941,161.686 -83.422,163.044C-86.889,172.832 -90.497,182.573 -94.271,192.247C-95.296,194.873 -95.456,197.106 -93.462,199.147C-91.308,201.352 -88.766,201.026 -86.137,200.038C-76.787,196.518 -67.474,192.891 -58.021,189.672C-56.085,189.012 -53.171,189.204 -51.453,190.239C-35.604,199.788 -18.508,204.543 0,204.768M-8.802,263.176C-10.177,263.051 -11.393,262.84 -12.66,262.721C-47.417,259.416 -78.164,246.682 -104.312,223.44C-130.106,200.51 -146.995,172.192 -153.805,138.273C-164.284,86.088 -151.638,39.796 -116.501,0.017C-95.1,-24.212 -68.219,-40.093 -36.599,-47.265C15.097,-58.991 61.688,-47.858 102.365,-14.035C127.983,7.266 144.883,34.559 152.756,67.076C154.822,75.607 156.301,84.365 157.092,93.105C160.219,127.649 151.87,159.549 133.809,188.981C132.003,191.924 131.924,194.35 133.109,197.44C139.13,213.145 144.979,228.914 150.879,244.666C151.248,245.651 151.535,246.666 151.866,247.666C152.891,250.76 152.017,253.401 149.783,255.588C147.478,257.848 144.681,258.206 141.725,257.108C124.833,250.84 107.981,244.463 91.028,238.368C89.118,237.682 86.178,237.76 84.521,238.786C62.393,252.481 38.428,260.459 12.52,262.729C11.38,262.829 9.969,263.094 8.323,263.344C1.115,263.759 -0.802,263.717 -8.802,263.176" style="fill:rgb(102,51,153);"/>
                        </g>
                        <g transform="matrix(1,0,0,1,139.432,155.025)">
                            <path d="M0,0.188C0,10.575 0.092,20.963 -0.062,31.349C-0.104,34.079 0.654,35.266 3.445,35.093C11.564,34.586 19.769,34.722 27.791,33.568C43.802,31.264 53.269,21.035 55.229,5.006C57.421,-12.915 48.961,-26.028 31.774,-31.541C22.675,-34.461 13.311,-33.672 4,-33.891C0.93,-33.963 -0.118,-32.934 -0.062,-29.79C0.117,-19.8 0.004,-9.805 0,0.188M-26.342,59.833L-26.342,-58.352C-25.481,-58.463 -24.733,-58.644 -23.984,-58.643C-7.93,-58.632 8.249,-59.844 24.147,-58.257C43.821,-56.293 62.369,-50.233 74.018,-32.154C79.384,-23.825 82.189,-14.731 82.537,-4.665C82.973,7.959 81.64,19.974 74.754,30.922C65.261,46.018 51.195,54.274 34.137,57.748C28.054,58.987 21.765,59.612 15.553,59.743C1.75,60.032 -12.063,59.833 -26.342,59.833" style="fill:rgb(102,51,153);"/>
                        </g>
                    </g>
                </g>
                <g transform="matrix(1,0,0,1,401.831,116.836)">
                    <path d="M0,6.637C-2.522,6.315 -4.575,5.864 -6.635,5.826C-11.646,5.735 -15.018,8.031 -16.445,12.246C-17.898,16.533 -16.323,21.434 -12.594,24.236C-5.638,29.46 6.133,27.663 11.983,20.376C15.731,15.708 17.629,10.299 17.645,4.302C17.678,-8.344 17.715,-20.99 17.596,-33.634C17.57,-36.312 18.345,-38.06 20.72,-39.416C24.998,-41.859 29.125,-44.567 34.263,-47.751L34.263,-42.476C34.261,-25.484 34.355,-8.491 34.182,8.5C34.145,12.076 35.404,12.986 38.751,12.975C49.619,12.943 49.62,13.048 49.62,2.358C49.619,-9.497 49.738,-21.355 49.539,-33.206C49.485,-36.431 50.551,-38.312 53.314,-39.817C57.522,-42.108 61.549,-44.733 66.563,-47.768C66.563,-45.39 66.562,-44.143 66.563,-42.896C66.594,-25.772 66.709,-8.648 66.587,8.474C66.562,11.964 67.677,13.2 71.126,12.966C74.666,12.724 78.235,12.877 81.792,12.914C83.948,12.936 84.859,11.974 84.831,9.795C84.745,3.21 84.873,-3.379 84.702,-9.961C84.535,-16.439 81.481,-21.171 74.083,-24.127C89.355,-32.218 103.627,-39.78 118.423,-47.619C118.639,-46.042 118.885,-45.082 118.886,-44.122C118.907,-26.471 118.936,-8.82 118.883,8.83C118.848,20.652 111.546,29.11 99.741,29.872C89.376,30.541 78.94,30.113 68.537,30.215C66.262,30.236 65.55,29.08 65.613,27.004C65.684,24.736 65.63,22.463 65.63,19.645C64.589,20.37 64.166,20.517 63.984,20.812C59.672,27.83 53.185,30.82 45.236,30.124C38.103,29.499 32.877,31.662 27.413,36.641C10.602,51.963 -11.245,54.405 -30.067,44.202C-48.988,33.945 -60.05,12.512 -57.104,-8.743C-55.564,-19.853 -50.665,-29.514 -43.311,-37.967C-42.054,-39.411 -40.982,-40.059 -39.479,-38.382C-26.469,-23.868 -13.449,-9.363 -0.45,5.16C-0.226,5.41 -0.227,5.862 0,6.637" style="fill:rgb(102,51,153);"/>
                </g>
                <g transform="matrix(1,0,0,1,724.511,88.1015)">
                    <path d="M0,25.614C9.906,5.307 19.351,-14.053 28.795,-33.414C29.166,-33.323 29.536,-33.231 29.906,-33.139C29.906,-32.08 29.995,-31.012 29.893,-29.963C29.014,-20.942 33.705,-15.097 42.736,-14.617C49.432,-14.261 56.158,-14.499 62.871,-14.426C80.872,-14.232 96.449,-3.276 102.275,13.724C103.657,17.756 104.268,22.198 104.41,26.479C104.727,35.947 104.426,45.433 104.583,54.908C104.635,57.984 103.66,59.021 100.521,59.012C68.665,58.917 36.809,58.909 4.953,59.016C1.483,59.028 0.194,57.953 0.508,54.476C0.768,51.604 0.803,48.663 0.497,45.8C0.128,42.341 1.583,41.578 4.746,41.592C27.124,41.693 49.502,41.646 71.88,41.646C75.962,41.647 80.043,41.593 84.122,41.671C86.643,41.719 87.439,40.773 86.715,38.295C84.316,30.097 78.8,25.898 70.158,25.893C48.702,25.882 27.245,25.896 5.789,25.883C4.244,25.882 2.701,25.744 0,25.614" style="fill:rgb(102,51,153);"/>
                </g>
                <g transform="matrix(1,0,0,1,568.757,146.862)">
                    <path d="M0,-91.817C-0.05,-90.716 -0.052,-89.611 -0.156,-88.515C-1.016,-79.541 3.795,-73.741 12.866,-73.335C19.439,-73.04 26.034,-73.251 32.619,-73.189C52.886,-72.998 69.59,-59.622 73.535,-39.809C74.652,-34.201 74.295,-28.28 74.416,-22.499C74.548,-16.18 74.356,-9.854 74.494,-3.535C74.553,-0.81 73.566,0.229 70.835,0.225C38.566,0.176 6.299,0.176 -25.971,0.222C-28.562,0.225 -29.501,-0.826 -29.404,-3.326C-29.287,-6.351 -29.155,-9.403 -29.428,-12.408C-29.755,-16.015 -28.548,-17.283 -24.814,-17.192C-15.205,-16.959 -5.587,-17.114 4.027,-17.114C20.096,-17.113 36.164,-17.108 52.232,-17.114C57.437,-17.117 57.789,-17.68 55.748,-22.58C52.813,-29.626 48.074,-32.859 40.512,-32.864C18.779,-32.881 -2.952,-32.866 -24.684,-32.871C-29.773,-32.872 -30.013,-33.189 -27.88,-37.594C-19.501,-54.894 -11.093,-72.181 -2.674,-89.462C-2.23,-90.372 -1.59,-91.187 -1.041,-92.046C-0.694,-91.97 -0.347,-91.893 0,-91.817" style="fill:rgb(102,51,153);"/>
                </g>
                <g transform="matrix(1,0,0,1,369.186,255.516)">
                    <path d="M0,0.076C0,7.847 0.068,15.619 -0.041,23.388C-0.074,25.678 0.473,26.875 3.002,26.699C10.864,26.154 18.81,26.221 26.577,25.068C38.287,23.334 46.641,14.627 47.748,4.164C49.162,-9.186 44.299,-17.891 32.353,-23.01C22.604,-27.186 12.258,-26.666 1.998,-26.311C1.291,-26.285 0.114,-24.061 0.086,-22.838C-0.091,-15.201 -0.004,-7.563 0,0.076M-22.898,46.67C-22.971,45.305 -23.075,44.277 -23.075,43.25C-23.084,14.566 -23.063,-14.119 -23.116,-42.802C-23.121,-45.193 -22.99,-46.885 -19.884,-46.784C-3.859,-46.256 12.232,-46.564 28.175,-45.159C42.144,-43.927 54.671,-38.345 63.491,-26.623C76.898,-8.803 76.791,26.818 44.163,41.004C35.257,44.877 25.904,46.834 16.188,46.89C4.479,46.961 -7.232,46.953 -18.942,46.951C-20.218,46.951 -21.494,46.773 -22.898,46.67" style="fill:rgb(102,51,153);"/>
                </g>
                <g transform="matrix(1,0,0,1,570.973,255.618)">
                    <path d="M0,-0.022C0,7.734 0.056,15.49 -0.033,23.242C-0.06,25.523 0.597,26.751 3.067,26.585C10.914,26.062 18.85,26.136 26.592,24.943C39.154,23.007 47.113,13.962 47.819,2.05C48.593,-10.948 42.266,-19.903 29.683,-24.071C21.257,-26.86 12.602,-26.532 3.936,-26.682C0.673,-26.741 -0.1,-25.44 -0.048,-22.497C0.087,-15.008 -0.003,-7.514 0,-0.022M-22.748,-0.053C-22.749,-14.135 -22.659,-28.219 -22.815,-42.302C-22.852,-45.621 -22.105,-47.059 -18.465,-46.917C-2.966,-46.318 12.607,-46.655 28.029,-45.272C41.857,-44.031 54.379,-38.638 63.123,-27.061C80.473,-4.088 71.276,29.087 44.421,40.775C35.519,44.65 26.179,46.699 16.464,46.783C4.882,46.882 -6.705,46.687 -18.281,46.951C-22.081,47.037 -22.87,45.718 -22.823,42.197C-22.638,28.117 -22.746,14.031 -22.748,-0.053" style="fill:rgb(102,51,153);"/>
                </g>
                <g transform="matrix(1,0,0,1,490.061,263.252)">
                    <path d="M0,-15.212C4.418,-15.724 8.936,-15.825 13.229,-16.855C18.367,-18.085 20.644,-21.464 20.609,-26.214C20.576,-31.023 17.929,-34.763 12.851,-35.771C8.251,-36.681 3.482,-36.997 -1.221,-37.083C-11.289,-37.271 -11.292,-37.142 -11.292,-26.995C-11.292,-15.616 -11.292,-15.616 0,-15.212M22.726,1.204C30.906,13.532 39.095,25.87 47.751,38.913C45.024,39.04 43.009,39.204 40.991,39.218C35.46,39.255 29.926,39.122 24.4,39.278C21.842,39.351 20.337,38.493 19.077,36.21C13.42,25.954 7.581,15.796 1.802,5.608C-0.097,2.261 -6.799,0.022 -10.027,1.981C-10.889,2.505 -11.229,4.433 -11.241,5.722C-11.338,15.464 -11.41,25.212 -11.225,34.952C-11.164,38.153 -11.997,39.458 -15.385,39.292C-20.377,39.048 -25.392,39.14 -30.393,39.265C-32.958,39.329 -34.155,38.735 -34.146,35.778C-34.047,6.94 -34.05,-21.899 -34.146,-50.739C-34.155,-53.776 -33.027,-54.562 -30.204,-54.539C-17.301,-54.432 -4.391,-54.67 8.509,-54.41C16.703,-54.244 24.835,-53.126 32.021,-48.659C42.426,-42.191 45.137,-32.278 43.634,-20.925C42.306,-10.89 36.543,-4.179 26.851,-0.968C25.852,-0.636 24.86,-0.273 23.896,0.147C23.563,0.292 23.325,0.649 22.726,1.204" style="fill:rgb(102,51,153);"/>
                </g>
                <g transform="matrix(1,0,0,1,829.278,208.898)">
                    <path d="M0,92.208C-7.25,92.208 -14.319,92.308 -21.376,92.052C-22.061,92.026 -23.206,89.804 -23.223,88.589C-23.367,77.796 -23.422,66.997 -23.235,56.206C-23.176,52.835 -24.014,51.612 -27.619,51.683C-39.331,51.909 -51.052,51.858 -62.767,51.7C-65.904,51.657 -66.875,52.665 -66.829,55.776C-66.673,66.569 -66.859,77.366 -66.706,88.159C-66.663,91.147 -67.322,92.497 -70.618,92.335C-75.608,92.091 -80.623,92.173 -85.622,92.308C-88.39,92.382 -89.61,91.626 -89.6,88.542C-89.501,60.237 -89.506,31.931 -89.597,3.627C-89.606,0.577 -88.389,-0.249 -85.602,-0.175C-80.603,-0.042 -75.593,-0.009 -70.597,-0.186C-67.696,-0.289 -66.656,0.675 -66.708,3.648C-66.865,12.597 -66.663,21.554 -66.828,30.503C-66.879,33.31 -66.287,34.515 -63.182,34.478C-51.071,34.329 -38.958,34.354 -26.847,34.466C-24.062,34.491 -23.212,33.513 -23.254,30.784C-23.391,21.702 -23.229,12.616 -23.36,3.534C-23.399,0.803 -22.503,-0.246 -19.741,-0.176C-14.215,-0.039 -8.684,-0.115 -3.154,-0.139C-0.823,-0.149 0.355,0.533 0.347,3.276C0.251,32.237 0.284,61.2 0.274,90.163C0.274,90.554 0.174,90.942 0,92.208" style="fill:rgb(102,51,153);"/>
                </g>
                <g transform="matrix(1,0,0,1,650.535,217.22)">
                    <path d="M0,75.363C4.627,70.441 9.226,65.398 14.079,60.611C14.591,60.105 16.893,60.734 17.864,61.484C25.582,67.441 33.99,69.664 43.413,66.467C47.036,65.236 50.146,63.181 50.482,58.861C50.813,54.615 48.575,51.697 44.83,50.265C38.46,47.832 31.945,45.783 25.506,43.531C23.031,42.666 20.567,41.758 18.149,40.748C-3.95,31.525 0.537,6.52 13.84,-2.768C24.779,-10.408 37.125,-13.689 50.121,-11.29C57.157,-9.991 63.723,-6.013 70.416,-3.055C72.796,-2.005 72.821,-0.357 70.874,1.545C67.106,5.226 63.439,9.013 59.864,12.881C58.259,14.617 57.082,14.453 55.183,13.185C48.418,8.67 41.05,7.589 33.358,10.461C29.801,11.789 26.697,13.879 26.406,18.217C26.112,22.615 28.771,25.156 32.487,26.445C39.557,28.896 46.794,30.863 53.86,33.322C63.546,36.693 71.549,42.099 72.964,53.228C74.882,68.306 66.849,80.256 52.431,85.22C44.222,88.049 35.905,89.052 27.286,88.461C18.425,87.849 4.278,81.265 0,75.363" style="fill:rgb(102,51,153);"/>
                </g>
                <g transform="matrix(1,0,0,1,649.701,88.5002)">
                    <path d="M0,86.167C1.114,85.616 2.245,85.096 3.342,84.512C14.923,78.342 21.895,69.253 21.804,55.598C21.733,45.198 21.848,34.797 21.75,24.399C21.726,21.79 21.422,19.135 20.853,16.589C19.722,11.531 17.067,7.667 11.345,5.902C25.475,-2.084 40.206,-8.75 55.341,-16.255C55.513,-14.364 55.722,-13.138 55.722,-11.911C55.739,17.972 55.706,47.854 55.749,77.737C55.763,87.415 52.527,95.547 44.653,101.415C43.632,102.177 40.972,102.422 40.306,101.725C31.469,92.479 19.714,90.609 8.017,88.538C5.389,88.072 2.737,87.732 0.097,87.335C0.065,86.946 0.032,86.557 0,86.167" style="fill:rgb(102,51,153);"/>
                </g>
                <g transform="matrix(1,0,0,1,443.548,59.2661)">
                    <path d="M0,-25.949C7.581,-25.953 13.627,-20.23 13.656,-13.022C13.685,-6.007 7.343,0.004 -0.054,-0.029C-7.278,-0.061 -13.409,-5.93 -13.475,-12.876C-13.542,-20.147 -7.566,-25.944 0,-25.949" style="fill:rgb(102,51,153);"/>
                </g>
                <g transform="matrix(1,0,0,1,459.651,6.5446)">
                    <path d="M0,26.749C-7.434,26.779 -13.606,20.789 -13.519,13.63C-13.435,6.74 -7.229,0.905 -0.399,0.412C5.721,-0.03 13.601,6.87 13.408,13.84C13.216,20.763 7.162,26.72 0,26.749" style="fill:rgb(102,51,153);"/>
                </g>
                <g transform="matrix(1,0,0,1,476.128,59.276)">
                    <path d="M0,-25.957C7.604,-25.913 13.183,-20.26 13.077,-12.705C12.978,-5.642 6.962,0.044 -0.322,-0.04C-7.552,-0.124 -13.492,-5.992 -13.468,-13.023C-13.44,-20.424 -7.634,-26.001 0,-25.957" style="fill:rgb(102,51,153);"/>
                </g>
            </g>
        </g>
    </g>
</svg>
