<?xml version="1.0" encoding="UTF-8" standalone="no"?>
<!DOCTYPE svg PUBLIC "-//W3C//DTD SVG 1.1//EN" "http://www.w3.org/Graphics/SVG/1.1/DTD/svg11.dtd">
<svg width="100%" height="100%" viewBox="0 0 663 492" version="1.1" xmlns="http://www.w3.org/2000/svg" xmlns:xlink="http://www.w3.org/1999/xlink" xml:space="preserve" xmlns:serif="http://www.serif.com/" style="fill-rule:evenodd;clip-rule:evenodd;stroke-linejoin:round;stroke-miterlimit:1.41421;">
    <g>
        <path d="M557.414,414.211C583.75,398.116 592.052,363.716 575.952,337.383C572.36,331.504 567.821,326.581 562.701,322.57C569.366,313.136 577.01,304.018 585.683,295.352C589.704,291.334 593.787,287.544 597.914,283.917C599.567,285.309 601.183,286.748 602.758,288.248L616.486,279.859C623.508,275.565 632.681,277.78 636.974,284.802L650.576,307.056C654.866,314.078 652.651,323.25 645.629,327.544L631.901,335.934C634.987,346.361 636.42,357.051 636.297,367.656L651.814,371.983C659.742,374.198 664.375,382.418 662.164,390.345L655.152,415.47C652.941,423.397 644.721,428.028 636.794,425.82L621.293,421.492C617.18,428.47 612.25,435.026 606.542,441.014L614.935,454.742C619.228,461.764 617.01,470.936 609.991,475.23L587.738,488.832C580.712,493.122 571.54,490.907 567.246,483.885L558.86,470.161C550.82,472.535 542.631,473.91 534.442,474.369C529.764,457.606 527.682,440.075 528.311,422.353C538.249,422.356 548.313,419.771 557.414,414.211Z" style="fill:rgb(97,146,205);fill-rule:nonzero;"/>
        <path d="M518.52,479.047L38.803,479.047C25.79,479.047 15.233,468.497 15.233,455.477L15.233,128.274C15.233,115.257 25.79,104.703 38.803,104.703L518.52,104.703C531.537,104.703 542.09,115.257 542.09,128.274L542.09,455.477C542.09,468.497 531.537,479.047 518.52,479.047Z" style="fill:rgb(227,233,246);fill-rule:nonzero;"/>
        <path d="M516.478,474.124L40.848,474.124C30.532,474.124 22.166,465.758 22.166,455.443L22.166,128.311C22.166,117.992 30.532,109.63 40.848,109.63L516.478,109.63C526.794,109.63 535.157,117.992 535.157,128.311L535.157,455.443C535.157,465.758 526.794,474.124 516.478,474.124Z" style="fill:rgb(124,180,225);fill-rule:nonzero;"/>
        <path d="M501.465,441.96L55.862,441.96C49.503,441.96 44.349,436.805 44.349,430.45L44.349,138.293C44.349,131.935 49.503,126.784 55.862,126.784L501.465,126.784C507.823,126.784 512.974,131.935 512.974,138.293L512.974,430.45C512.974,436.805 507.823,441.96 501.465,441.96Z" style="fill:rgb(73,107,179);fill-rule:nonzero;"/>
        <path d="M2.441,459.638C0.923,462.434 -0.015,465.591 -0.015,468.997C-0.015,479.908 8.83,488.754 19.741,488.754L537.586,488.754C548.497,488.754 557.339,479.908 557.339,468.997C557.339,465.591 556.4,462.434 554.882,459.638L2.441,459.638Z" style="fill:rgb(227,233,246);fill-rule:nonzero;"/>
        <path d="M2.441,478.356C5.788,484.521 12.235,488.754 19.741,488.754L537.586,488.754C545.091,488.754 551.538,484.521 554.882,478.356L2.441,478.356Z" style="fill:rgb(202,214,237);fill-rule:nonzero;"/>
        <path d="M542.09,349.053L535.157,349.053L535.157,338.472L542.09,338.472L542.09,349.053ZM179.889,109.63L166.954,109.63L166.954,104.703L179.889,104.703L179.889,109.63Z" style="fill:rgb(193,199,222);fill-rule:nonzero;"/>
        <path d="M535.157,349.053L512.974,349.053L512.974,338.472L535.157,338.472L535.157,349.053ZM179.889,126.784L166.954,126.784L166.954,109.63L179.889,109.63L179.889,126.784Z" style="fill:rgb(96,156,212);fill-rule:nonzero;"/>
        <path d="M512.974,349.053L176.364,349.053C171.166,349.053 166.954,344.844 166.954,339.649L166.954,126.784L179.889,126.784L179.889,329.065C179.889,334.263 184.101,338.472 189.299,338.472L512.974,338.472L512.974,349.053Z" style="fill:rgb(66,98,173);fill-rule:nonzero;"/>
        <path d="M576.602,338.472L542.09,338.472L542.09,128.274C542.09,115.257 531.537,104.703 518.52,104.703L179.889,104.703L179.889,86.838C179.889,81.643 184.101,77.431 189.299,77.431L582.032,77.431C587.227,77.431 591.443,81.643 591.443,86.838L591.443,289.786C589.51,291.596 587.591,293.447 585.683,295.352C577.01,304.018 569.366,313.136 562.701,322.57C567.821,326.581 572.36,331.504 575.952,337.383C576.173,337.744 576.391,338.108 576.602,338.472Z" style="fill:rgb(143,191,231);fill-rule:nonzero;"/>
        <path d="M582.032,338.472L576.602,338.472C576.391,338.108 576.173,337.744 575.952,337.383C572.36,331.504 567.821,326.581 562.701,322.57C569.366,313.136 577.01,304.018 585.683,295.352C587.591,293.447 589.51,291.596 591.443,289.786L591.443,329.065C591.443,334.263 587.227,338.472 582.032,338.472Z" style="fill:rgb(119,165,216);fill-rule:nonzero;"/>
        <path d="M542.09,338.472L535.157,338.472L535.157,128.311C535.157,117.992 526.794,109.63 516.478,109.63L179.889,109.63L179.889,104.703L518.52,104.703C531.537,104.703 542.09,115.257 542.09,128.274L542.09,338.472Z" style="fill:rgb(200,207,230);fill-rule:nonzero;"/>
        <path d="M535.157,338.472L512.974,338.472L512.974,138.293C512.974,131.935 507.823,126.784 501.465,126.784L179.889,126.784L179.889,109.63L516.478,109.63C526.794,109.63 535.157,117.992 535.157,128.311L535.157,338.472Z" style="fill:rgb(124,173,220);fill-rule:nonzero;"/>
        <path d="M512.974,338.472L189.299,338.472C184.101,338.472 179.889,334.263 179.889,329.065L179.889,126.784L501.465,126.784C507.823,126.784 512.974,131.935 512.974,138.293L512.974,338.472Z" style="fill:rgb(88,118,186);fill-rule:nonzero;"/>
        <path d="M598.495,320.835L205.759,320.835C200.564,320.835 196.352,316.623 196.352,311.428L196.352,69.201C196.352,64.003 200.564,59.794 205.759,59.794L598.495,59.794C603.69,59.794 607.902,64.003 607.902,69.201L607.902,311.428C607.902,316.623 603.69,320.835 598.495,320.835Z" style="fill:rgb(249,252,253);fill-rule:nonzero;"/>
        <path d="M120.364,237.937L78.619,237.937C75.37,237.937 72.74,235.304 72.74,232.059L72.74,187.962C72.74,184.713 75.37,182.083 78.619,182.083L120.364,182.083C123.61,182.083 126.24,184.713 126.24,187.962L126.24,232.059C126.24,235.304 123.61,237.937 120.364,237.937Z" style="fill:rgb(66,98,173);fill-rule:nonzero;"/>
        <path d="M117.278,319.072L75.533,319.072C72.284,319.072 69.654,316.436 69.654,313.19L69.654,269.094C69.654,265.848 72.284,263.219 75.533,263.219L117.278,263.219C120.524,263.219 123.154,265.848 123.154,269.094L123.154,313.19C123.154,316.436 120.524,319.072 117.278,319.072Z" style="fill:rgb(124,180,225);fill-rule:nonzero;"/>
        <path d="M117.278,398.442L75.533,398.442C72.284,398.442 69.654,395.806 69.654,392.56L69.654,348.464C69.654,345.218 72.284,342.588 75.533,342.588L117.278,342.588C120.524,342.588 123.154,345.218 123.154,348.464L123.154,392.56C123.154,395.806 120.524,398.442 117.278,398.442Z" style="fill:rgb(124,180,225);fill-rule:nonzero;"/>
        <path d="M108.092,364.362C108.092,357.34 102.401,351.645 95.375,351.645C88.353,351.645 82.658,357.34 82.658,364.362C82.658,364.362 80.868,377.832 95.375,388.545C109.885,377.832 108.092,364.362 108.092,364.362Z" style="fill:rgb(131,112,179);fill-rule:nonzero;"/>
        <path d="M96.123,373.542C90.449,373.991 85.747,369.289 86.192,363.614C86.543,359.15 90.163,355.53 94.627,355.18C100.301,354.734 105.003,359.436 104.554,365.111C104.204,369.575 100.587,373.191 96.123,373.542Z" style="fill:rgb(249,252,253);fill-rule:nonzero;"/>
        <path d="M112.719,290.405C112.719,300.122 104.84,308.002 95.127,308.002C85.406,308.002 77.53,300.122 77.53,290.405C77.53,280.689 85.406,272.813 95.127,272.813C104.84,272.813 112.719,280.689 112.719,290.405Z" style="fill:rgb(131,112,179);fill-rule:nonzero;"/>
        <path d="M109.314,290.405C109.314,298.244 102.962,304.596 95.127,304.596C87.288,304.596 80.936,298.244 80.936,290.405C80.936,282.57 87.288,276.218 95.127,276.218C102.962,276.218 109.314,282.57 109.314,290.405Z" style="fill:rgb(249,252,253);fill-rule:nonzero;"/>
        <path d="M95.127,276.218C101.557,276.218 106.983,280.495 108.729,286.36L109.27,286.775C109.647,286.775 109.926,286.411 109.817,286.051C107.943,279.709 102.074,275.082 95.127,275.082C88.176,275.082 82.311,279.709 80.436,286.051C80.324,286.411 80.599,286.775 80.98,286.775L81.525,286.36C83.267,280.495 88.693,276.218 95.127,276.218Z" style="fill:rgb(168,137,191);fill-rule:nonzero;"/>
        <path d="M110.865,290.861C110.021,290.861 109.293,291.474 109.184,292.311C108.249,299.248 102.312,304.596 95.127,304.596C87.938,304.596 82.001,299.248 81.069,292.311C80.956,291.474 80.228,290.861 79.385,290.861C78.361,290.861 77.558,291.76 77.694,292.773C78.854,301.371 86.213,308.002 95.127,308.002C104.037,308.002 111.399,301.371 112.556,292.773C112.692,291.76 111.889,290.861 110.865,290.861Z" style="fill:rgb(112,96,170);fill-rule:nonzero;"/>
        <path d="M109.314,290.405C109.314,298.244 102.962,304.596 95.127,304.596C87.288,304.596 80.936,298.244 80.936,290.405C80.936,282.57 87.288,276.218 95.127,276.218C102.962,276.218 109.314,282.57 109.314,290.405Z" style="fill:rgb(249,252,253);fill-rule:nonzero;"/>
        <path d="M108.953,294.985L108.419,295.362C106.408,300.755 101.216,304.596 95.127,304.596C89.033,304.596 83.841,300.755 81.831,295.362L81.293,294.985C80.899,294.985 80.62,295.379 80.759,295.75C82.926,301.578 88.54,305.729 95.127,305.729C101.706,305.729 107.323,301.578 109.494,295.75C109.63,295.379 109.351,294.985 108.953,294.985Z" style="fill:rgb(131,112,179);fill-rule:nonzero;"/>
        <path d="M95.086,291.654C94.712,291.654 94.405,291.348 94.405,290.974L94.405,280.981C94.405,280.607 94.712,280.304 95.086,280.304C95.463,280.304 95.766,280.607 95.766,280.981L95.766,290.974C95.766,291.348 95.463,291.654 95.086,291.654Z" style="fill:rgb(131,112,179);fill-rule:nonzero;"/>
        <path d="M94.596,290.596L95.555,290.514L101.717,295.72L101.798,296.683L100.839,296.761L94.677,291.555L94.596,290.596Z" style="fill:rgb(131,112,179);fill-rule:nonzero;"/>
        <rect x="94.729" y="277.181" width="0.51" height="1.364" style="fill:rgb(208,212,236);fill-rule:nonzero;"/>
        <rect x="94.729" y="302.041" width="0.51" height="1.361" style="fill:rgb(208,212,236);fill-rule:nonzero;"/>
        <rect x="81.872" y="290.035" width="1.364" height="0.513" style="fill:rgb(208,212,236);fill-rule:nonzero;"/>
        <rect x="106.731" y="290.035" width="1.361" height="0.513" style="fill:rgb(208,212,236);fill-rule:nonzero;"/>
        <path d="M86.856,281.805L86.495,282.165L85.532,281.203L85.893,280.838L86.856,281.805Z" style="fill:rgb(208,212,236);fill-rule:nonzero;"/>
        <path d="M104.435,299.384L104.074,299.744L103.112,298.782L103.472,298.418L104.435,299.384Z" style="fill:rgb(208,212,236);fill-rule:nonzero;"/>
        <path d="M86.495,298.418L86.856,298.782L85.893,299.744L85.532,299.384L86.495,298.418Z" style="fill:rgb(208,212,236);fill-rule:nonzero;"/>
        <path d="M104.074,280.838L104.435,281.203L103.472,282.165L103.112,281.805L104.074,280.838Z" style="fill:rgb(208,212,236);fill-rule:nonzero;"/>
        <path d="M117.278,236.171L75.533,236.171C72.284,236.171 69.654,233.541 69.654,230.292L69.654,186.196C69.654,182.95 72.284,180.317 75.533,180.317L117.278,180.317C120.524,180.317 123.154,182.95 123.154,186.196L123.154,230.292C123.154,233.541 120.524,236.171 117.278,236.171Z" style="fill:rgb(124,180,225);fill-rule:nonzero;"/>
        <path d="M67.082,230.442L71.488,227.356L73.475,220.079L71.267,219.636L69.947,222.283L71.267,209.716L69.066,210.154L66.861,222.283L64.213,228.016L66.64,229.557" style="fill:rgb(246,211,169);fill-rule:nonzero;"/>
        <path d="M93.17,243.527L93.759,238.229L100.227,231.766L101.696,233.82L99.342,236.464L111.688,233.529L111.688,236.171L100.227,240.58L97.876,244.7L93.17,243.527Z" style="fill:rgb(246,211,169);fill-rule:nonzero;"/>
        <path d="M12.678,374.338L36.724,491.976L54.923,490.026L42.576,485.477L47.125,484.178L40.623,374.338L12.678,374.338Z" style="fill:rgb(86,83,164);fill-rule:nonzero;"/>
        <path d="M51.024,372.392C51.024,372.392 81.572,400.987 77.02,435.431C71.818,462.727 60.768,473.127 60.768,473.127L57.522,472.477L62.557,485.804L47.935,470.205C47.935,470.205 65.973,445.345 54.759,419.509C43.549,393.672 19.176,384.412 19.176,384.412C19.176,384.412 40.137,365.404 41.6,365.887C43.059,366.377 51.024,372.392 51.024,372.392Z" style="fill:rgb(86,83,164);fill-rule:nonzero;"/>
        <path d="M64.019,225.992C64.019,225.992 13.814,286.922 7.966,299.108C7.966,299.108 5.526,303.497 5.526,316.17C5.526,328.843 9.915,375.641 9.915,375.641L61.098,378.563C61.098,378.563 44.522,321.529 44.036,320.069C43.549,318.606 35.262,309.832 27.464,307.883L70.359,230.378L64.019,225.992Z" style="fill:rgb(246,138,68);fill-rule:nonzero;"/>
        <path d="M32.23,301.997C32.23,301.997 34.363,308.321 35.541,312.149C35.541,312.149 25.092,311.928 21.415,307.073L25.313,297.73L32.23,301.997Z" style="fill:rgb(246,211,169);fill-rule:nonzero;"/>
        <path d="M40.174,282.223C40.174,282.223 43.263,300.217 40.174,304.307C37.085,308.396 26.491,301.442 22.075,294.9C17.662,288.354 16.781,273.633 24.283,272.408C31.788,271.18 38.409,275.677 40.174,282.223Z" style="fill:rgb(246,211,169);fill-rule:nonzero;"/>
        <path d="M35.425,315.534C35.425,315.534 75.676,290.212 78.922,285.016C82.168,279.825 91.258,241.193 91.258,241.193L99.049,243.139C99.049,243.139 94.504,286.316 93.204,290.861C91.908,295.407 52.303,337.608 43.212,337.608C34.125,337.608 30.879,325.918 35.425,315.534Z" style="fill:rgb(246,138,68);fill-rule:nonzero;"/>
        <path d="M18.502,273.211C18.502,273.211 23.796,265.862 33.203,267.628C42.607,269.39 44.961,267.335 44.961,267.335C44.961,267.335 42.903,277.62 36.435,279.971C29.968,282.325 28.205,281.737 28.205,281.737C28.205,281.737 31.733,285.265 32.615,287.908C33.496,290.555 29.675,284.676 28.205,286.735C26.736,288.789 28.205,293.202 31.145,292.906C34.084,292.613 32.319,294.964 31.145,297.315C29.968,299.67 28.205,302.609 26.44,301.725C24.677,300.843 18.502,297.315 16.15,289.967C13.8,282.618 13.212,275.565 18.502,273.211Z" style="fill:rgb(86,83,164);fill-rule:nonzero;"/>
        <path d="M340.69,295.26L226.04,295.26C223.607,295.26 221.634,293.287 221.634,290.851L221.634,91.54C221.634,89.104 223.607,87.131 226.04,87.131L340.69,87.131C343.123,87.131 345.1,89.104 345.1,91.54L345.1,290.851C345.1,293.287 343.123,295.26 340.69,295.26Z" style="fill:rgb(227,233,246);fill-rule:nonzero;"/>
        <path d="M319.229,121.527L246.324,121.527C244.378,121.527 242.799,119.945 242.799,117.999L242.799,107.415C242.799,105.465 244.378,103.887 246.324,103.887L319.229,103.887C321.175,103.887 322.757,105.465 322.757,107.415L322.757,117.999C322.757,119.945 321.175,121.527 319.229,121.527Z" style="fill:rgb(124,180,225);fill-rule:nonzero;"/>
        <path d="M269.55,219.562L253.672,219.562C249.94,219.562 246.912,216.534 246.912,212.801C246.912,209.069 249.94,206.045 253.672,206.045L269.55,206.045C273.283,206.045 276.311,209.069 276.311,212.801C276.311,216.534 273.283,219.562 269.55,219.562Z" style="fill:rgb(124,180,225);fill-rule:nonzero;"/>
        <path d="M315.409,219.562L299.531,219.562C295.798,219.562 292.774,216.534 292.774,212.801C292.774,209.069 295.798,206.045 299.531,206.045L315.409,206.045C319.144,206.045 322.169,209.069 322.169,212.801C322.169,216.534 319.144,219.562 315.409,219.562Z" style="fill:rgb(131,112,179);fill-rule:nonzero;"/>
        <rect x="241.037" y="139.164" width="85.834" height="13.521" style="fill:rgb(249,252,253);fill-rule:nonzero;"/>
        <rect x="241.037" y="162.095" width="85.834" height="13.52" style="fill:rgb(249,252,253);fill-rule:nonzero;"/>
        <rect x="259.555" y="184.141" width="49.386" height="3.086" style="fill:rgb(208,211,235);fill-rule:nonzero;"/>
        <path d="M599.526,256.748L445.192,256.748C435.693,256.748 427.998,249.055 427.998,239.553C427.998,230.057 435.693,222.355 445.192,222.355L599.526,222.355C609.022,222.355 616.721,230.057 616.721,239.553C616.721,249.055 609.022,256.748 599.526,256.748Z" style="fill:rgb(131,112,179);fill-rule:nonzero;"/>
        <path d="M465.918,110.943L369.789,110.943C361.998,110.943 355.68,104.625 355.68,96.834C355.68,89.04 361.998,82.722 369.789,82.722L465.918,82.722C473.71,82.722 480.031,89.04 480.031,96.834C480.031,104.625 473.71,110.943 465.918,110.943Z" style="fill:rgb(227,233,246);fill-rule:nonzero;"/>
        <path d="M392.724,96.834C392.724,99.267 390.747,101.243 388.311,101.243C385.875,101.243 383.902,99.267 383.902,96.834C383.902,94.398 385.875,92.425 388.311,92.425C390.747,92.425 392.724,94.398 392.724,96.834Z" style="fill:rgb(254,194,64);fill-rule:nonzero;"/>
        <path d="M423,96.834C423,99.267 421.026,101.243 418.59,101.243C416.154,101.243 414.178,99.267 414.178,96.834C414.178,94.398 416.154,92.425 418.59,92.425C421.026,92.425 423,94.398 423,96.834Z" style="fill:rgb(143,194,64);fill-rule:nonzero;"/>
        <path d="M450.925,96.834C450.925,99.267 448.952,101.243 446.516,101.243C444.08,101.243 442.107,99.267 442.107,96.834C442.107,94.398 444.08,92.425 446.516,92.425C448.952,92.425 450.925,94.398 450.925,96.834Z" style="fill:rgb(234,81,36);fill-rule:nonzero;"/>
        <path d="M106.531,211.682C106.531,217.612 101.723,222.423 95.79,222.423C89.86,222.423 85.049,217.612 85.049,211.682C85.049,205.749 89.86,200.941 95.79,200.941C101.723,200.941 106.531,205.749 106.531,211.682Z" style="fill:white;fill-rule:nonzero;"/>
        <path d="M95.953,219.602C91.598,219.602 88.064,216.071 88.064,211.713C88.064,207.358 91.598,203.826 95.953,203.826C100.312,203.826 103.843,207.358 103.843,211.713C103.843,216.071 100.312,219.602 95.953,219.602ZM106.925,198.709L105.034,198.709L102.312,194.879C102.101,194.576 101.751,194.399 101.38,194.399L90.527,194.399C90.156,194.399 89.809,194.576 89.595,194.879L86.876,198.709L84.981,198.709C82.038,198.709 79.63,201.118 79.63,204.061L79.63,219.633C79.63,222.576 82.038,224.985 84.981,224.985L106.925,224.985C109.872,224.985 112.277,222.576 112.277,219.633L112.277,204.061C112.277,201.118 109.872,198.709 106.925,198.709Z" style="fill:rgb(131,112,179);fill-rule:nonzero;"/>
        <path d="M101.169,211.713C101.169,214.594 98.835,216.928 95.953,216.928C93.072,216.928 90.738,214.594 90.738,211.713C90.738,208.834 93.072,206.5 95.953,206.5C98.835,206.5 101.169,208.834 101.169,211.713Z" style="fill:rgb(124,180,225);fill-rule:nonzero;"/>
        <path d="M479.881,201.976L399.184,201.976C395.343,201.976 392.23,198.863 392.23,195.018L392.23,146.789C392.23,142.947 395.343,139.834 399.184,139.834L479.881,139.834C483.722,139.834 486.839,142.947 486.839,146.789L486.839,195.018C486.839,198.863 483.722,201.976 479.881,201.976Z" style="fill:rgb(227,233,246);fill-rule:nonzero;"/>
        <path d="M439.626,170.424L439.439,170.424C439.017,170.424 438.602,170.318 438.235,170.111L401.767,149.85C400.566,149.187 400.13,147.673 400.8,146.472C401.467,145.271 402.978,144.839 404.182,145.506L439.531,165.147L474.887,145.506C476.088,144.839 477.598,145.271 478.265,146.472C478.932,147.673 478.5,149.187 477.299,149.85L440.831,170.111C440.463,170.318 440.048,170.424 439.626,170.424Z" style="fill:rgb(240,77,68);fill-rule:nonzero;"/>
        <path d="M619.368,195.607L514.419,195.607C511.011,195.607 508.249,192.841 508.249,189.432L508.249,50.091C508.249,46.682 511.011,43.92 514.419,43.92L619.368,43.92C622.777,43.92 625.539,46.682 625.539,50.091L625.539,189.432C625.539,192.841 622.777,195.607 619.368,195.607Z" style="fill:rgb(86,83,164);fill-rule:nonzero;"/>
        <path d="M534.456,64.251L526.641,64.251C526.222,64.251 525.886,63.578 525.886,62.741C525.886,61.907 526.222,61.23 526.641,61.23L534.456,61.23C534.871,61.23 535.204,61.907 535.204,62.741C535.204,63.578 534.871,64.251 534.456,64.251Z" style="fill:rgb(51,198,244);fill-rule:nonzero;"/>
        <path d="M582.835,64.251L538.133,64.251C537.718,64.251 537.378,63.578 537.378,62.741C537.378,61.907 537.718,61.23 538.133,61.23L582.835,61.23C583.253,61.23 583.587,61.907 583.587,62.741C583.587,63.578 583.253,64.251 582.835,64.251Z" style="fill:rgb(51,198,244);fill-rule:nonzero;"/>
        <path d="M552.392,70.498L538.133,70.498C537.718,70.498 537.378,69.821 537.378,68.987C537.378,68.154 537.718,67.476 538.133,67.476L552.392,67.476C552.807,67.476 553.147,68.154 553.147,68.987C553.147,69.821 552.807,70.498 552.392,70.498Z" style="fill:rgb(239,88,160);fill-rule:nonzero;"/>
        <path d="M575.847,70.498L555.298,70.498C554.882,70.498 554.542,69.821 554.542,68.987C554.542,68.154 554.882,67.476 555.298,67.476L575.847,67.476C576.262,67.476 576.599,68.154 576.599,68.987C576.599,69.821 576.262,70.498 575.847,70.498Z" style="fill:rgb(227,233,246);fill-rule:nonzero;"/>
        <path d="M582.835,100.907L538.133,100.907C537.718,100.907 537.378,100.229 537.378,99.396C537.378,98.562 537.718,97.885 538.133,97.885L582.835,97.885C583.253,97.885 583.587,98.562 583.587,99.396C583.587,100.229 583.253,100.907 582.835,100.907Z" style="fill:rgb(227,233,246);fill-rule:nonzero;"/>
        <path d="M534.456,107.153L526.641,107.153C526.222,107.153 525.886,106.476 525.886,105.642C525.886,104.809 526.222,104.132 526.641,104.132L534.456,104.132C534.871,104.132 535.204,104.809 535.204,105.642C535.204,106.476 534.871,107.153 534.456,107.153Z" style="fill:rgb(51,198,244);fill-rule:nonzero;"/>
        <path d="M552.392,107.153L538.133,107.153C537.718,107.153 537.378,106.476 537.378,105.642C537.378,104.809 537.718,104.132 538.133,104.132L552.392,104.132C552.807,104.132 553.147,104.809 553.147,105.642C553.147,106.476 552.807,107.153 552.392,107.153Z" style="fill:rgb(227,233,246);fill-rule:nonzero;"/>
        <path d="M575.847,107.153L555.298,107.153C554.882,107.153 554.542,106.476 554.542,105.642C554.542,104.809 554.882,104.132 555.298,104.132L575.847,104.132C576.262,104.132 576.599,104.809 576.599,105.642C576.599,106.476 576.262,107.153 575.847,107.153Z" style="fill:rgb(239,88,160);fill-rule:nonzero;"/>
        <path d="M593.923,76.744L538.133,76.744C537.718,76.744 537.378,76.067 537.378,75.233C537.378,74.397 537.718,73.72 538.133,73.72L593.923,73.72C594.338,73.72 594.675,74.397 594.675,75.233C594.675,76.067 594.338,76.744 593.923,76.744Z" style="fill:rgb(239,88,160);fill-rule:nonzero;"/>
        <path d="M582.229,82.99L569.24,82.99C568.801,82.99 568.444,82.633 568.444,82.194L568.444,80.762C568.444,80.323 568.801,79.966 569.24,79.966L582.229,79.966C582.672,79.966 583.025,80.323 583.025,80.762L583.025,82.194C583.025,82.633 582.672,82.99 582.229,82.99Z" style="fill:rgb(51,198,244);fill-rule:nonzero;"/>
        <path d="M556.665,82.99L538.133,82.99C537.718,82.99 537.378,82.314 537.378,81.477C537.378,80.643 537.718,79.966 538.133,79.966L556.665,79.966C557.08,79.966 557.417,80.643 557.417,81.477C557.417,82.314 557.08,82.99 556.665,82.99Z" style="fill:rgb(227,233,246);fill-rule:nonzero;"/>
        <path d="M566.528,82.99L559.176,82.99C558.761,82.99 558.428,82.314 558.428,81.477C558.428,80.643 558.761,79.966 559.176,79.966L566.528,79.966C566.943,79.966 567.28,80.643 567.28,81.477C567.28,82.314 566.943,82.99 566.528,82.99Z" style="fill:rgb(51,198,244);fill-rule:nonzero;"/>
        <path d="M534.456,89.026L526.641,89.026C526.222,89.026 525.886,88.349 525.886,87.515C525.886,86.682 526.222,86.005 526.641,86.005L534.456,86.005C534.871,86.005 535.204,86.682 535.204,87.515C535.204,88.349 534.871,89.026 534.456,89.026Z" style="fill:rgb(227,233,246);fill-rule:nonzero;"/>
        <path d="M593.923,89.026L538.133,89.026C537.718,89.026 537.378,88.349 537.378,87.515C537.378,86.682 537.718,86.005 538.133,86.005L593.923,86.005C594.338,86.005 594.675,86.682 594.675,87.515C594.675,88.349 594.338,89.026 593.923,89.026Z" style="fill:rgb(227,233,246);fill-rule:nonzero;"/>
        <path d="M534.456,112.937L526.641,112.937C526.222,112.937 525.886,112.263 525.886,111.426C525.886,110.593 526.222,109.915 526.641,109.915L534.456,109.915C534.871,109.915 535.204,110.593 535.204,111.426C535.204,112.263 534.871,112.937 534.456,112.937Z" style="fill:rgb(227,233,246);fill-rule:nonzero;"/>
        <path d="M587.68,112.937L569.379,112.937C568.862,112.937 568.444,112.518 568.444,112.001L568.444,110.851C568.444,110.334 568.862,109.915 569.379,109.915L587.68,109.915C588.2,109.915 588.619,110.334 588.619,110.851L588.619,112.001C588.619,112.518 588.2,112.937 587.68,112.937Z" style="fill:rgb(227,233,246);fill-rule:nonzero;"/>
        <path d="M556.665,112.937L538.133,112.937C537.718,112.937 537.378,112.263 537.378,111.426C537.378,110.593 537.718,109.915 538.133,109.915L556.665,109.915C557.08,109.915 557.417,110.593 557.417,111.426C557.417,112.263 557.08,112.937 556.665,112.937Z" style="fill:rgb(227,233,246);fill-rule:nonzero;"/>
        <path d="M566.528,112.937L559.176,112.937C558.761,112.937 558.428,112.263 558.428,111.426C558.428,110.593 558.761,109.915 559.176,109.915L566.528,109.915C566.943,109.915 567.28,110.593 567.28,111.426C567.28,112.263 566.943,112.937 566.528,112.937Z" style="fill:rgb(227,233,246);fill-rule:nonzero;"/>
        <path d="M534.456,118.976L526.641,118.976C526.222,118.976 525.886,118.299 525.886,117.465C525.886,116.628 526.222,115.954 526.641,115.954L534.456,115.954C534.871,115.954 535.204,116.628 535.204,117.465C535.204,118.299 534.871,118.976 534.456,118.976Z" style="fill:rgb(254,195,91);fill-rule:nonzero;"/>
        <path d="M547.792,118.976L538.133,118.976C537.718,118.976 537.378,118.299 537.378,117.465C537.378,116.628 537.718,115.954 538.133,115.954L547.792,115.954C548.207,115.954 548.544,116.628 548.544,117.465C548.544,118.299 548.207,118.976 547.792,118.976Z" style="fill:rgb(51,198,244);fill-rule:nonzero;"/>
        <path d="M526.641,95.272C526.222,95.272 525.886,94.595 525.886,93.762C525.886,92.925 526.222,92.251 526.641,92.251L534.456,92.251C534.871,92.251 535.204,92.925 535.204,93.762C535.204,94.595 534.871,95.272 534.456,95.272" style="fill:rgb(51,198,244);fill-rule:nonzero;"/>
        <path d="M590.242,95.272L569.441,95.272C568.889,95.272 568.444,94.827 568.444,94.276L568.444,93.245C568.444,92.697 568.889,92.251 569.441,92.251L590.242,92.251C590.793,92.251 591.238,92.697 591.238,93.245L591.238,94.276C591.238,94.827 590.793,95.272 590.242,95.272Z" style="fill:rgb(227,233,246);fill-rule:nonzero;"/>
        <path d="M556.665,95.272L538.133,95.272C537.718,95.272 537.378,94.595 537.378,93.762C537.378,92.925 537.718,92.251 538.133,92.251L556.665,92.251C557.08,92.251 557.417,92.925 557.417,93.762C557.417,94.595 557.08,95.272 556.665,95.272Z" style="fill:rgb(254,195,91);fill-rule:nonzero;"/>
        <path d="M566.528,95.272L559.176,95.272C558.761,95.272 558.428,94.595 558.428,93.762C558.428,92.925 558.761,92.251 559.176,92.251L566.528,92.251C566.943,92.251 567.28,92.925 567.28,93.762C567.28,94.595 566.943,95.272 566.528,95.272Z" style="fill:rgb(254,195,91);fill-rule:nonzero;"/>
        <path d="M582.835,125.396L538.133,125.396C537.718,125.396 537.378,124.718 537.378,123.885C537.378,123.051 537.718,122.374 538.133,122.374L582.835,122.374C583.253,122.374 583.587,123.051 583.587,123.885C583.587,124.718 583.253,125.396 582.835,125.396Z" style="fill:rgb(227,233,246);fill-rule:nonzero;"/>
        <path d="M552.392,131.642L538.133,131.642C537.718,131.642 537.378,130.965 537.378,130.131C537.378,129.294 537.718,128.621 538.133,128.621L552.392,128.621C552.807,128.621 553.147,129.294 553.147,130.131C553.147,130.965 552.807,131.642 552.392,131.642Z" style="fill:rgb(227,233,246);fill-rule:nonzero;"/>
        <path d="M575.847,131.642L555.298,131.642C554.882,131.642 554.542,130.965 554.542,130.131C554.542,129.294 554.882,128.621 555.298,128.621L575.847,128.621C576.262,128.621 576.599,129.294 576.599,130.131C576.599,130.965 576.262,131.642 575.847,131.642Z" style="fill:rgb(227,233,246);fill-rule:nonzero;"/>
        <path d="M582.835,162.051L538.133,162.051C537.718,162.051 537.378,161.377 537.378,160.54C537.378,159.707 537.718,159.03 538.133,159.03L582.835,159.03C583.253,159.03 583.587,159.707 583.587,160.54C583.587,161.377 583.253,162.051 582.835,162.051Z" style="fill:rgb(227,233,246);fill-rule:nonzero;"/>
        <path d="M534.456,168.297L526.641,168.297C526.222,168.297 525.886,167.624 525.886,166.787C525.886,165.953 526.222,165.276 526.641,165.276L534.456,165.276C534.871,165.276 535.204,165.953 535.204,166.787C535.204,167.624 534.871,168.297 534.456,168.297Z" style="fill:rgb(239,88,160);fill-rule:nonzero;"/>
        <path d="M552.392,168.297L538.133,168.297C537.718,168.297 537.378,167.624 537.378,166.787C537.378,165.953 537.718,165.276 538.133,165.276L552.392,165.276C552.807,165.276 553.147,165.953 553.147,166.787C553.147,167.624 552.807,168.297 552.392,168.297Z" style="fill:rgb(51,198,244);fill-rule:nonzero;"/>
        <path d="M575.847,168.297L555.298,168.297C554.882,168.297 554.542,167.624 554.542,166.787C554.542,165.953 554.882,165.276 555.298,165.276L575.847,165.276C576.262,165.276 576.599,165.953 576.599,166.787C576.599,167.624 576.262,168.297 575.847,168.297Z" style="fill:rgb(227,233,246);fill-rule:nonzero;"/>
        <path d="M534.456,137.888L526.641,137.888C526.222,137.888 525.886,137.211 525.886,136.378C525.886,135.541 526.222,134.867 526.641,134.867L534.456,134.867C534.871,134.867 535.204,135.541 535.204,136.378C535.204,137.211 534.871,137.888 534.456,137.888Z" style="fill:rgb(239,88,160);fill-rule:nonzero;"/>
        <path d="M578.038,137.888L538.29,137.888C537.786,137.888 537.378,137.48 537.378,136.98L537.378,135.776C537.378,135.272 537.786,134.867 538.29,134.867L578.038,134.867C578.541,134.867 578.95,135.272 578.95,135.776L578.95,136.98C578.95,137.48 578.541,137.888 578.038,137.888Z" style="fill:rgb(239,88,160);fill-rule:nonzero;"/>
        <path d="M534.456,144.135L526.641,144.135C526.222,144.135 525.886,143.458 525.886,142.621C525.886,141.787 526.222,141.114 526.641,141.114L534.456,141.114C534.871,141.114 535.204,141.787 535.204,142.621C535.204,143.458 534.871,144.135 534.456,144.135Z" style="fill:rgb(227,233,246);fill-rule:nonzero;"/>
        <path d="M556.665,144.135L538.133,144.135C537.718,144.135 537.378,143.458 537.378,142.621C537.378,141.787 537.718,141.114 538.133,141.114L556.665,141.114C557.08,141.114 557.417,141.787 557.417,142.621C557.417,143.458 557.08,144.135 556.665,144.135Z" style="fill:rgb(227,233,246);fill-rule:nonzero;"/>
        <path d="M566.528,144.135L559.176,144.135C558.761,144.135 558.428,143.458 558.428,142.621C558.428,141.787 558.761,141.114 559.176,141.114L566.528,141.114C566.943,141.114 567.28,141.787 567.28,142.621C567.28,143.458 566.943,144.135 566.528,144.135Z" style="fill:rgb(227,233,246);fill-rule:nonzero;"/>
        <path d="M534.456,150.17L526.641,150.17C526.222,150.17 525.886,149.493 525.886,148.66C525.886,147.826 526.222,147.149 526.641,147.149L534.456,147.149C534.871,147.149 535.204,147.826 535.204,148.66C535.204,149.493 534.871,150.17 534.456,150.17Z" style="fill:rgb(227,233,246);fill-rule:nonzero;"/>
        <path d="M588.704,150.17L538.399,150.17C537.838,150.17 537.378,149.714 537.378,149.153L537.378,148.17C537.378,147.605 537.838,147.149 538.399,147.149L588.704,147.149C589.268,147.149 589.724,147.605 589.724,148.17L589.724,149.153C589.724,149.714 589.268,150.17 588.704,150.17Z" style="fill:rgb(227,233,246);fill-rule:nonzero;"/>
        <path d="M534.456,174.081L526.641,174.081C526.222,174.081 525.886,173.404 525.886,172.57C525.886,171.737 526.222,171.06 526.641,171.06L534.456,171.06C534.871,171.06 535.204,171.737 535.204,172.57C535.204,173.404 534.871,174.081 534.456,174.081Z" style="fill:rgb(227,233,246);fill-rule:nonzero;"/>
        <path d="M593.865,174.081L569.199,174.081C568.784,174.081 568.444,173.404 568.444,172.57C568.444,171.737 568.784,171.06 569.199,171.06L593.865,171.06C594.28,171.06 594.613,171.737 594.613,172.57C594.613,173.404 594.28,174.081 593.865,174.081Z" style="fill:rgb(227,233,246);fill-rule:nonzero;"/>
        <path d="M556.665,174.081L538.133,174.081C537.718,174.081 537.378,173.404 537.378,172.57C537.378,171.737 537.718,171.06 538.133,171.06L556.665,171.06C557.08,171.06 557.417,171.737 557.417,172.57C557.417,173.404 557.08,174.081 556.665,174.081Z" style="fill:rgb(227,233,246);fill-rule:nonzero;"/>
        <path d="M566.528,174.081L559.176,174.081C558.761,174.081 558.428,173.404 558.428,172.57C558.428,171.737 558.761,171.06 559.176,171.06L566.528,171.06C566.943,171.06 567.28,171.737 567.28,172.57C567.28,173.404 566.943,174.081 566.528,174.081Z" style="fill:rgb(227,233,246);fill-rule:nonzero;"/>
        <path d="M571.131,180.12L538.208,180.12C537.752,180.12 537.378,179.749 537.378,179.293L537.378,177.925C537.378,177.47 537.752,177.099 538.208,177.099L571.131,177.099C571.587,177.099 571.958,177.47 571.958,177.925L571.958,179.293C571.958,179.749 571.587,180.12 571.131,180.12Z" style="fill:rgb(254,195,91);fill-rule:nonzero;"/>
        <path d="M591.555,156.417L569.468,156.417C568.903,156.417 568.444,155.957 568.444,155.393L568.444,154.42C568.444,153.855 568.903,153.396 569.468,153.396L591.555,153.396C592.12,153.396 592.579,153.855 592.579,154.42L592.579,155.393C592.579,155.957 592.12,156.417 591.555,156.417Z" style="fill:rgb(239,88,160);fill-rule:nonzero;"/>
        <path d="M556.665,156.417L538.133,156.417C537.718,156.417 537.378,155.74 537.378,154.906C537.378,154.073 537.718,153.396 538.133,153.396L556.665,153.396C557.08,153.396 557.417,154.073 557.417,154.906C557.417,155.74 557.08,156.417 556.665,156.417Z" style="fill:rgb(254,195,91);fill-rule:nonzero;"/>
        <path d="M566.528,156.417L559.176,156.417C558.761,156.417 558.428,155.74 558.428,154.906C558.428,154.073 558.761,153.396 559.176,153.396L566.528,153.396C566.943,153.396 567.28,154.073 567.28,154.906C567.28,155.74 566.943,156.417 566.528,156.417Z" style="fill:rgb(254,195,91);fill-rule:nonzero;"/>
        <path d="M640.778,47.053C640.778,60.689 629.721,71.743 616.085,71.743C602.445,71.743 591.388,60.689 591.388,47.053C591.388,33.414 602.445,22.36 616.085,22.36C629.721,22.36 640.778,33.414 640.778,47.053Z" style="fill:rgb(215,95,163);fill-rule:nonzero;"/>
        <path d="M614.295,44.736L604.487,48.329L614.295,51.891L614.295,55.576L600.271,50.244L600.271,46.414L614.295,41.086L614.295,44.736Z" style="fill:rgb(249,252,253);fill-rule:nonzero;"/>
        <path d="M617.497,41.086L631.517,46.414L631.517,50.244L617.497,55.576L617.497,51.891L627.305,48.329L617.497,44.736L617.497,41.086Z" style="fill:rgb(249,252,253);fill-rule:nonzero;"/>
        <path d="M479.534,463.414C479.534,478.21 467.541,490.2 452.749,490.2C437.956,490.2 425.963,478.21 425.963,463.414C425.963,448.625 437.956,436.629 452.749,436.629C467.541,436.629 479.534,448.625 479.534,463.414Z" style="fill:rgb(254,194,64);fill-rule:nonzero;"/>
        <path d="M449.156,464.05C449.156,466.486 450.149,467.704 452.133,467.704C453.17,467.704 453.963,467.337 454.507,466.605C455.048,465.87 455.378,464.68 455.494,463.026L455.719,459.199C455.13,459.073 454.467,459.008 453.725,459.008C452.282,459.008 451.16,459.457 450.357,460.359C449.557,461.26 449.156,462.489 449.156,464.05ZM466.891,461.883C466.891,463.547 466.626,465.067 466.095,466.449C465.565,467.827 464.813,468.912 463.843,469.694C462.873,470.484 461.747,470.875 460.465,470.875C459.611,470.875 458.855,470.668 458.195,470.259C457.535,469.848 457.066,469.31 456.777,468.64L456.498,468.64C455.253,470.127 453.664,470.875 451.735,470.875C449.693,470.875 448.081,470.259 446.9,469.031C445.726,467.799 445.134,466.115 445.134,463.979C445.134,461.543 445.907,459.581 447.455,458.09C449.006,456.603 451.024,455.858 453.521,455.858C454.514,455.858 455.606,455.95 456.804,456.143C457.995,456.331 458.981,456.562 459.757,456.827L459.359,465.295C459.359,466.901 459.794,467.704 460.672,467.704C461.411,467.704 461.999,467.163 462.441,466.085C462.88,465.003 463.098,463.591 463.098,461.846C463.098,459.992 462.71,458.348 461.934,456.919C461.166,455.494 460.073,454.408 458.672,453.657C457.267,452.908 455.668,452.53 453.864,452.53C451.534,452.53 449.506,453.01 447.785,453.966C446.063,454.926 444.747,456.31 443.828,458.117C442.913,459.923 442.45,462.009 442.45,464.38C442.45,467.565 443.304,470.011 445.005,471.715C446.71,473.416 449.176,474.27 452.412,474.27C453.633,474.27 454.977,474.134 456.447,473.862C457.913,473.59 459.359,473.192 460.778,472.675L460.778,476.002C458.304,477.05 455.562,477.577 452.551,477.577C448.162,477.577 444.74,476.424 442.287,474.114C439.83,471.804 438.606,468.592 438.606,464.482C438.606,461.631 439.235,459.039 440.487,456.715C441.739,454.385 443.522,452.561 445.839,451.238C448.152,449.918 450.816,449.254 453.834,449.254C456.372,449.254 458.641,449.778 460.638,450.816C462.635,451.853 464.18,453.333 465.262,455.249C466.347,457.168 466.891,459.38 466.891,461.883Z" style="fill:white;fill-rule:nonzero;"/>
        <path d="M318.144,0.025L150.103,0.025C136.453,0.025 125.389,11.089 125.389,24.735C125.389,38.384 136.453,49.448 150.103,49.448L162.459,49.448L174.405,61.39L186.346,49.448L318.144,49.448C331.79,49.448 342.854,38.384 342.854,24.735C342.854,11.089 331.79,0.025 318.144,0.025Z" style="fill:rgb(131,112,179);fill-rule:nonzero;"/>
        <path d="M270.061,32.614L159.486,32.614C157.958,32.614 156.72,31.376 156.72,29.848C156.72,28.324 157.958,27.086 159.486,27.086L270.061,27.086C271.585,27.086 272.823,28.324 272.823,29.848C272.823,31.376 271.585,32.614 270.061,32.614Z" style="fill:white;fill-rule:nonzero;"/>
        <path d="M235.505,17.41L159.486,17.41C157.958,17.41 156.72,16.171 156.72,14.647C156.72,13.12 157.958,11.881 159.486,11.881L235.505,11.881C237.032,11.881 238.267,13.12 238.267,14.647C238.267,16.171 237.032,17.41 235.505,17.41Z" style="fill:white;fill-rule:nonzero;"/>
        <path d="M547.82,313.159C547.82,313.159 545.765,319.26 544.628,322.947C544.628,322.947 554.706,322.737 558.251,318.055L554.491,309.043L547.82,313.159Z" style="fill:rgb(246,211,169);fill-rule:nonzero;"/>
        <path d="M546.306,481.401L547.17,485.236L552.732,485.549L551.555,480.85L546.306,481.401Z" style="fill:rgb(247,155,117);fill-rule:nonzero;"/>
        <path d="M547.17,485.236C547.17,485.236 537.848,490.095 537.923,490.407C538.004,490.723 553.671,489.073 553.671,489.073L552.732,485.549L547.17,485.236Z" style="fill:rgb(86,83,164);fill-rule:nonzero;"/>
        <path d="M593.321,473.665L595.501,476.938L600.805,475.226L598.016,471.266L593.321,473.665Z" style="fill:rgb(247,155,117);fill-rule:nonzero;"/>
        <path d="M595.501,476.938L588.738,485.089L602.952,478.176L600.805,475.226L595.501,476.938Z" style="fill:rgb(86,83,164);fill-rule:nonzero;"/>
        <path d="M535.966,379.941C535.966,379.941 519.986,432.121 545.37,482.415L552.889,482.415C552.889,482.415 537.848,425.541 556.648,379.475L535.966,379.941Z" style="fill:rgb(254,194,64);fill-rule:nonzero;"/>
        <path d="M549.84,381.788C549.84,381.788 552.321,436.302 593.127,475.148L600.21,472.62C600.21,472.62 566.933,424.102 569.165,374.395L549.84,381.788Z" style="fill:rgb(254,194,64);fill-rule:nonzero;"/>
        <path d="M542.522,258.959L542.543,255.74L542.488,255.322L541.876,253.022L540.039,253.488L538.174,251.76C537.382,251.035 536.113,251.273 535.657,252.243C535.078,253.468 534.422,255.043 534.214,256.247C534.132,256.724 534.292,257.207 534.619,257.567L537.477,260.697C537.889,261.143 538.518,261.32 539.103,261.147L541.383,260.476C542.056,260.272 542.519,259.66 542.522,258.959Z" style="fill:rgb(247,155,117);fill-rule:nonzero;"/>
        <path d="M570.09,329.517C570.09,329.517 549.245,307.178 547.874,298.816C546.5,290.456 543.451,259.35 543.451,259.35L537.024,260.595C537.024,260.595 534.816,305.079 536.766,310.203C538.722,315.327 551.252,341.438 559.418,343.847C567.579,346.259 573.316,338.21 570.09,329.517Z" style="fill:rgb(240,81,114);fill-rule:nonzero;"/>
        <path d="M541.138,292.668C541.138,292.668 536.436,308.311 539.413,312.254C542.393,316.198 553.355,312.625 557.611,306.318C561.867,300.006 562.721,285.806 555.485,284.625C548.248,283.441 542.842,286.357 541.138,292.668Z" style="fill:rgb(247,155,117);fill-rule:nonzero;"/>
        <path d="M569.342,384.173C569.342,384.173 573.571,339.05 573.571,326.826C573.571,326.268 573.561,325.744 573.554,325.217C570.407,317.269 562.595,317.426 559.469,318.052C556.335,318.678 544.115,322.597 544.193,323.067L544.159,323.026C539.95,326.081 536.732,329.708 536.436,330.585C536.436,330.585 525.154,354.091 535.027,382.295L569.342,384.173Z" style="fill:rgb(240,81,114);fill-rule:nonzero;"/>
        <path d="M509.599,261.262L509.052,258.095L508.926,257.693L507.919,255.536L506.197,256.315L504.05,254.948C503.149,254.366 501.941,254.825 501.659,255.863C501.308,257.166 500.934,258.836 500.944,260.054C500.947,260.541 501.186,260.99 501.573,261.283L504.935,263.858C505.421,264.232 506.071,264.294 506.616,264.021L508.742,262.957C509.371,262.644 509.718,261.96 509.599,261.262Z" style="fill:rgb(247,155,117);fill-rule:nonzero;"/>
        <path d="M549.126,325.887C549.126,325.887 524.685,307.556 521.867,299.561C519.044,291.572 510.582,261.49 510.582,261.49L504.472,263.838C504.472,263.838 510.113,308.025 512.932,312.724C515.754,317.426 532.676,340.928 541.138,341.87C549.599,342.81 553.828,333.875 549.126,325.887Z" style="fill:rgb(240,81,114);fill-rule:nonzero;"/>
        <path d="M558.53,284.52C558.53,284.52 545.993,279.195 540.039,290.164C536.905,297.057 546.935,290.474 548.813,292.668C550.694,294.862 546.306,299.251 547.561,300.816C548.813,302.381 551.007,297.996 552.263,300.503C553.515,303.011 550.381,303.324 548.187,306.144C545.993,308.964 550.068,313.037 546.935,315.548C543.802,318.052 535.027,319.933 540.352,333.409C545.683,346.882 531.577,350.328 537.535,368.819C543.489,387.307 583.913,397.65 591.436,375.712C598.955,353.778 573.887,348.447 575.452,338.734C577.021,329.02 582.661,326.513 575.139,316.8C567.617,307.083 562.915,301.442 565.113,295.175C567.304,288.905 561.35,284.52 558.53,284.52Z" style="fill:rgb(86,83,164);fill-rule:nonzero;"/>
        <path d="M603.044,236.896C601.227,236.896 599.751,235.423 599.751,233.606C599.751,231.783 601.227,230.313 603.044,230.313C604.861,230.313 606.337,231.783 606.337,233.606C606.337,235.423 604.861,236.896 603.044,236.896ZM592.715,250.406C588.374,250.406 584.801,247.181 584.23,242.999L601.2,242.999C600.628,247.181 597.053,250.406 592.715,250.406ZM579.093,233.606C579.093,231.783 580.566,230.313 582.386,230.313C584.203,230.313 585.676,231.783 585.676,233.606C585.676,235.423 584.203,236.896 582.386,236.896C580.566,236.896 579.093,235.423 579.093,233.606ZM592.715,208.753C577.834,208.753 565.766,220.817 565.766,235.702C565.766,250.583 577.834,262.647 592.715,262.647C607.596,262.647 619.664,250.583 619.664,235.702C619.664,220.817 607.596,208.753 592.715,208.753Z" style="fill:rgb(254,200,8);fill-rule:nonzero;"/>
        <path d="M192.436,427.358L190.861,424.2L233.576,402.845L287.466,403.726L345.981,381.686L390.672,381.686L438.388,365.778L438.779,365.822L477.047,370.17L498.617,358.953L500.243,362.083L477.721,373.797L477.183,373.735L438.769,369.37L390.958,385.211L346.304,385.211L288.086,407.268L287.749,407.261L234.385,406.386L192.436,427.358Z" style="fill:rgb(249,252,253);fill-rule:nonzero;"/>
        <path d="M349.216,342.731C349.216,342.731 391.546,411.292 386.253,458.991L415.062,459.583L402.716,452.432L406.244,451.833C406.244,451.833 395.66,377.907 385.664,351.672C375.195,324.196 372.144,334.382 372.144,334.382L349.216,342.731Z" style="fill:rgb(86,83,164);fill-rule:nonzero;"/>
        <path d="M333.927,338.472C333.927,338.472 336.281,386.096 332.753,404.318C329.225,422.547 318.641,458.409 318.641,458.409L345.685,458.998L338.584,453.983L334.073,451.357C334.073,451.357 353.33,399.616 355.092,374.926C356.858,350.23 359.797,336.117 359.797,336.117L333.927,338.472Z" style="fill:rgb(86,83,164);fill-rule:nonzero;"/>
        <path d="M389.267,197.515L393.676,194.429L395.66,187.152L393.455,186.713L392.135,189.357L393.455,176.792L391.25,177.231L389.049,189.357L386.399,195.089L388.825,196.634" style="fill:rgb(246,211,169);fill-rule:nonzero;"/>
        <path d="M415.355,210.597L415.944,205.306L422.411,198.839L423.881,200.897L421.527,203.544L433.873,200.601L433.873,203.248L422.411,207.657L420.06,211.774L415.355,210.597Z" style="fill:rgb(246,211,169);fill-rule:nonzero;"/>
        <path d="M386.208,193.069C386.208,193.069 335.999,253.999 330.15,266.185C330.15,266.185 327.711,270.571 327.711,283.244C327.711,295.92 332.1,342.714 332.1,342.714L383.283,345.637C383.283,345.637 366.707,288.609 366.224,287.146C365.734,285.683 357.446,276.909 349.645,274.96L392.543,197.454L386.208,193.069Z" style="fill:rgb(124,180,225);fill-rule:nonzero;"/>
        <path d="M354.415,269.07C354.415,269.07 356.548,275.402 357.722,279.226C357.722,279.226 347.277,279.005 343.599,274.15L347.502,264.804L354.415,269.07Z" style="fill:rgb(246,211,169);fill-rule:nonzero;"/>
        <path d="M362.359,249.297C362.359,249.297 365.448,267.294 362.359,271.38C359.27,275.47 348.675,268.519 344.259,261.973C339.85,255.434 338.965,240.706 346.471,239.481C353.973,238.257 360.593,242.754 362.359,249.297Z" style="fill:rgb(246,211,169);fill-rule:nonzero;"/>
        <path d="M357.61,282.608C357.61,282.608 397.861,257.288 401.107,252.093C404.356,246.902 413.443,208.27 413.443,208.27L421.234,210.219C421.234,210.219 416.692,253.396 415.392,257.942C414.093,262.487 374.488,304.681 365.397,304.681C356.31,304.681 353.064,292.998 357.61,282.608Z" style="fill:rgb(124,180,225);fill-rule:nonzero;"/>
        <path d="M359.504,245.286C359.504,245.286 361.559,238.229 357.154,234.701C352.744,231.177 345.1,231.766 343.922,232.939C343.922,234.998 348.628,236.171 347.451,237.348C346.273,238.525 340.102,237.348 338.632,243.527C337.162,249.698 339.221,250.872 339.221,250.872C339.221,250.872 335.985,254.693 339.806,259.983C343.63,265.273 352.265,269.635 354.415,269.07C356.565,268.506 355.388,260.276 355.388,260.276C355.388,260.276 350.39,259.69 350.094,256.458C349.801,253.223 352.448,252.927 353.622,254.104C354.799,255.281 355.092,257.925 355.976,257.34C356.858,256.748 355.68,250.579 355.68,250.579C355.68,250.579 358.916,247.932 359.504,245.286Z" style="fill:rgb(86,83,164);fill-rule:nonzero;"/>
        <path d="M383.197,425.394L352.965,433.682C344.654,435.965 339.721,444.63 341.997,452.942L347.716,473.791C349.995,482.106 358.664,487.042 366.976,484.763L376.039,482.272L384.963,491.095L388.141,478.955L397.208,476.468C405.519,474.189 410.456,465.523 408.176,457.208L402.457,436.36C400.174,428.048 391.509,423.112 383.197,425.394Z" style="fill:rgb(131,112,179);fill-rule:nonzero;"/>
        <path d="M363.193,459.559C363.699,461.407 362.614,463.312 360.767,463.819C358.919,464.326 357.014,463.241 356.504,461.393C356,459.547 357.086,457.637 358.933,457.13C360.777,456.623 362.686,457.712 363.193,459.559Z" style="fill:white;fill-rule:nonzero;"/>
        <path d="M378.428,455.378C378.934,457.225 377.849,459.134 376.002,459.641C374.154,460.144 372.246,459.059 371.742,457.212C371.232,455.364 372.321,453.459 374.168,452.949C376.012,452.445 377.921,453.531 378.428,455.378Z" style="fill:white;fill-rule:nonzero;"/>
        <path d="M393.663,451.2C394.169,453.048 393.084,454.953 391.237,455.463C389.389,455.967 387.484,454.881 386.974,453.034C386.47,451.186 387.556,449.278 389.403,448.774C391.25,448.264 393.159,449.353 393.663,451.2Z" style="fill:white;fill-rule:nonzero;"/>
        <path d="M239.271,403.729C239.271,406.818 236.77,409.316 233.684,409.316C230.599,409.316 228.101,406.818 228.101,403.729C228.101,400.647 230.599,398.146 233.684,398.146C236.77,398.146 239.271,400.647 239.271,403.729Z" style="fill:rgb(254,194,64);fill-rule:nonzero;"/>
        <path d="M444.461,367.867C444.461,370.952 441.957,373.453 438.874,373.453C435.789,373.453 433.288,370.952 433.288,367.867C433.288,364.784 435.789,362.284 438.874,362.284C441.957,362.284 444.461,364.784 444.461,367.867Z" style="fill:rgb(240,81,114);fill-rule:nonzero;"/>
    </g>
</svg>
